<?xml version="1.0" encoding="UTF-8"?>
<svg width="24px" height="24px" viewBox="0 0 24 24" version="1.1" xmlns="http://www.w3.org/2000/svg" xmlns:xlink="http://www.w3.org/1999/xlink">
    <title>Assets/Crypto/Aave</title>
    <defs>
        <path d="M11,0 C10.521,0 10.043,0.102 9.68,0.307 L9.68,0.307 L1.319,5.034 C0.594,5.445 0,6.453 0,7.273 L0,7.273 L0,16.726 C0,17.548 0.594,18.555 1.319,18.966 L1.319,18.966 L9.68,23.692 C10.406,24.103 11.594,24.103 12.32,23.692 L12.32,23.692 L20.679,18.966 C21.406,18.555 22,17.548 22,16.726 L22,16.726 L22,7.273 C22,6.453 21.406,5.445 20.679,5.034 L20.679,5.034 L12.32,0.307 C11.957,0.102 11.478,0 11,0 Z" id="path-1"></path>
        <linearGradient x1="79.97264%" y1="14.6625502%" x2="20.9669394%" y2="84.2289176%" id="linearGradient-3">
            <stop stop-color="#B6509E" offset="0%"></stop>
            <stop stop-color="#2DBAC6" offset="100%"></stop>
        </linearGradient>
    </defs>
    <g id="Assets/Crypto/Aave" stroke="none" stroke-width="1" fill="none" fill-rule="evenodd">
        <g id="Group-3" transform="translate(1.000000, 0.000000)">
            <mask id="mask-2" fill="white">
                <use xlink:href="#path-1"></use>
            </mask>
            <g id="Clip-2"></g>
            <path d="M11,0 C10.521,0 10.043,0.102 9.68,0.307 L9.68,0.307 L1.319,5.034 C0.594,5.445 0,6.453 0,7.273 L0,7.273 L0,16.726 C0,17.548 0.594,18.555 1.319,18.966 L1.319,18.966 L9.68,23.692 C10.406,24.103 11.594,24.103 12.32,23.692 L12.32,23.692 L20.679,18.966 C21.406,18.555 22,17.548 22,16.726 L22,16.726 L22,7.273 C22,6.453 21.406,5.445 20.679,5.034 L20.679,5.034 L12.32,0.307 C11.957,0.102 11.478,0 11,0 Z" id="Fill-1" fill="url(#linearGradient-3)" mask="url(#mask-2)"></path>
        </g>
        <path d="M16.9521393,16.0188464 L13.1311308,6.7163368 C12.9151604,6.23560786 12.5961914,6 12.1735177,6 L11.835573,6 C11.4130759,6 11.0941951,6.23560786 10.8779599,6.7163368 L9.21586138,10.7690587 L7.95816681,10.7690587 C7.58125927,10.7707509 7.27577748,11.0774498 7.27283359,11.4571226 L7.27283359,11.4665469 C7.27577748,11.8462197 7.58125927,12.1529186 7.95816681,12.1546108 L8.63414454,12.1546108 L7.04750768,16.0188464 C7.01750763,16.1035937 7.00164183,16.1927594 7.00055374,16.2827272 C6.99313161,16.4736359 7.06056333,16.6598226 7.18828121,16.8010645 C7.32111529,16.9374623 7.50585497,17.0095821 7.69524245,16.9989751 C7.83706517,16.9970942 7.97482696,16.9510014 8.08958486,16.8670347 C8.20974658,16.7775037 8.30379152,16.6570635 8.3618647,16.5183351 L10.1080743,12.1545218 L11.319168,12.1545218 C11.6961792,12.1530244 12.0018604,11.8463229 12.0048543,11.4665469 L12.0048543,11.4476983 C12.0019104,11.0680255 11.6964286,10.7613265 11.319521,10.7596344 L10.671698,10.7596344 L12.0048543,7.41364716 L15.6381353,16.5178905 C15.6962085,16.656619 15.7902534,16.7770592 15.9104151,16.8665901 C16.025173,16.9505568 16.1629348,16.9966497 16.3047576,16.9985305 C16.494145,17.0091375 16.6788847,16.9370177 16.8117188,16.8006199 C16.9394367,16.6593781 17.0068684,16.4731913 16.9994463,16.2822827 C17.002809,16.1920551 16.9866676,16.1021691 16.9521393,16.0188464 L16.9521393,16.0188464 Z" id="Path" fill="#FFFFFF" fill-rule="nonzero"></path>
    </g>
</svg>