<?xml version="1.0" encoding="UTF-8"?>
<svg width="24px" height="24px" viewBox="0 0 24 24" version="1.1" xmlns="http://www.w3.org/2000/svg" xmlns:xlink="http://www.w3.org/1999/xlink">
    <title>Assets/Crypto/Cardano</title>
    <defs>
        <linearGradient x1="25.043724%" y1="-20.9423504%" x2="56.6767514%" y2="106.28091%" id="linearGradient-1">
            <stop stop-color="#7195DF" offset="0%"></stop>
            <stop stop-color="#3468D1" offset="100%"></stop>
        </linearGradient>
    </defs>
    <g id="Assets/Crypto/Cardano" stroke="none" stroke-width="1" fill="none" fill-rule="evenodd">
        <path d="M21.6800305,18.9655351 C22.4060645,18.5550661 23,17.5475512 23,16.7266131 L23,7.27338689 C23,6.45244882 22.4060645,5.44493392 21.6800305,5.03446489 L13.3199695,0.307851775 C12.5939355,-0.102617258 11.4060645,-0.102617258 10.6800305,0.307851775 L2.31996952,5.03446489 C1.59393547,5.44493392 1,6.45244882 1,7.27338689 L1,16.7266131 C1,17.5475512 1.59393547,18.5550661 2.31996952,18.9655351 L10.6800305,23.6921482 C11.4060645,24.1026173 12.5939355,24.1026173 13.3199695,23.6921482 L21.6800305,18.9655351 Z" id="Stroke-3" fill="url(#linearGradient-1)" fill-rule="nonzero"></path>
        <path d="M12.0000364,19.1175331 C12.2410069,19.1175796 12.4363191,19.3151472 12.4362884,19.5588227 C12.4362577,19.8024982 12.2408958,20.0000155 11.9999253,20 C11.7589548,19.9999845 11.5636178,19.8024421 11.5636178,19.5587665 C11.5636178,19.4417295 11.6096001,19.3294873 11.6914469,19.2467376 C11.7732936,19.1639878 11.8842986,19.1175107 12.0000364,19.1175331 Z M15.8545539,18.8234336 C16.0553563,18.8234336 16.2181389,18.9880435 16.2181389,19.1911001 C16.2181389,19.3941566 16.0553563,19.5587665 15.8545539,19.5587665 C15.6537515,19.5587665 15.4909689,19.3941566 15.4909689,19.1911001 C15.4909689,19.0935889 15.5292751,19.0000714 15.5974605,18.9311206 C15.6656459,18.8621698 15.7581252,18.8234336 15.8545539,18.8234336 Z M8.14543557,18.8234336 C8.34623801,18.8234336 8.50902055,18.9880435 8.50902055,19.1911001 C8.50902055,19.3941566 8.34623801,19.5587665 8.14543557,19.5587665 C7.94463312,19.5587665 7.78185058,19.3941566 7.78185058,19.1911001 C7.78185058,19.0935889 7.82015675,19.0000714 7.88834216,18.9311206 C7.95652757,18.8621698 8.04900683,18.8234336 8.14543557,18.8234336 Z M14.8000491,16.9117027 C15.1012081,16.9117958 15.3452796,17.158733 15.3452183,17.4632727 C15.3451569,17.7678123 15.1009859,18.0146489 14.7998269,18.0146179 C14.498668,18.0145869 14.2545466,17.7677 14.2545466,17.4631603 C14.2545466,17.3168755 14.3120244,17.1765846 14.4143307,17.0731613 C14.5166371,16.9697381 14.6553882,16.9116581 14.8000491,16.9117027 Z M9.20002369,16.9117027 C9.50118263,16.9117958 9.74525417,17.158733 9.74519283,17.4632727 C9.74513146,17.7678123 9.50096043,18.0146489 9.19980148,18.0146179 C8.89864253,18.0145869 8.65452121,17.7677 8.65452121,17.4631603 C8.65452121,17.3168755 8.71199894,17.1765846 8.81430529,17.0731613 C8.91661165,16.9697381 9.05536276,16.9116581 9.20002369,16.9117027 Z M12.0000364,16.2499368 C12.3614407,16.2500299 12.6543507,16.5463538 12.6542894,16.9118151 C12.654228,17.2772764 12.3612185,17.5734997 11.9998142,17.5734687 C11.6384099,17.5734377 11.3454501,17.2771641 11.3454501,16.9117028 C11.3454501,16.7361623 11.4144206,16.567814 11.5371841,16.443704 C11.6599476,16.3195939 11.8264446,16.2498921 12.0000364,16.2499368 Z M5.96359233,15.5881709 C6.14008107,15.5881709 6.29919003,15.6956831 6.36672156,15.8605711 C6.43425309,16.0254591 6.39690682,16.2152481 6.27209851,16.3414333 C6.14729021,16.4676186 5.95960094,16.5053478 5.79655628,16.4370267 C5.63351162,16.3687056 5.5272233,16.20779 5.527257,16.0293201 C5.52730303,15.7856665 5.72264353,15.5881709 5.96359233,15.5881709 Z M18.0363971,15.5881709 C18.2128859,15.5881709 18.3719948,15.6956831 18.4395264,15.8605711 C18.5070579,16.0254591 18.4697116,16.2152481 18.3449033,16.3414333 C18.220095,16.4676186 18.0324058,16.5053478 17.8693611,16.4370267 C17.7063164,16.3687056 17.6000281,16.20779 17.6000618,16.0293201 C17.6001078,15.7856665 17.7954483,15.5881709 18.0363971,15.5881709 Z M13.2727922,13.67644 C13.8550545,13.6765797 14.3269723,14.1539837 14.3268803,14.7427823 C14.3267882,15.3315809 13.8547212,15.8088341 13.2724589,15.8087876 C12.6901965,15.8087411 12.2182041,15.3314124 12.2182041,14.7426138 C12.2182262,14.45981 12.3293493,14.1885992 12.5271253,13.9886504 C12.7249014,13.7887016 12.9931278,13.6763953 13.2727922,13.67644 Z M10.7272806,13.6764401 C11.3095538,13.6765331 11.7815134,14.1539166 11.7814521,14.7427262 C11.7813907,15.3315358 11.3093316,15.8088186 10.7270584,15.8087876 C10.1447852,15.8087566 9.67277583,15.3314234 9.67277583,14.7426138 C9.67279793,14.4598246 9.78390964,14.1886266 9.98166765,13.9886802 C10.1794257,13.7887338 10.4476307,13.6764177 10.7272806,13.6764401 Z M15.7818869,14.0440222 C16.1432912,14.0441153 16.4362012,14.3404392 16.4361399,14.7059005 C16.4360785,15.0713618 16.143069,15.3675851 15.7816647,15.3675541 C15.4202604,15.3675231 15.1273006,15.0712495 15.1273006,14.7057882 C15.1273006,14.5302478 15.1962711,14.3618994 15.3190346,14.2377894 C15.4417981,14.1136794 15.6082952,14.0439775 15.7818869,14.0440222 Z M8.2181859,14.0440223 C8.57960103,14.0440688 8.87255288,14.3403721 8.8725222,14.7058444 C8.87249152,15.0713166 8.57948993,15.3675696 8.21807479,15.3675541 C7.85665965,15.3675386 7.56368292,15.0712605 7.56368292,14.7057882 C7.56372894,14.3402913 7.85674643,14.0440223 8.2181859,14.0440223 Z M9.41819135,11.4705255 C10.0004645,11.4706186 10.4724242,11.948002 10.4723628,12.5368116 C10.4723014,13.1256212 10.0002423,13.6029041 9.41796913,13.602873 C8.83569596,13.602842 8.36368656,13.1255088 8.36368656,12.5366993 C8.36377859,11.9478405 8.83586951,11.4705255 9.41819135,11.4705255 Z M14.5818815,11.4705255 C15.1641438,11.4706651 15.6360616,11.9480692 15.6359696,12.5368678 C15.6358775,13.1256664 15.1638105,13.6029195 14.5815481,13.602873 C13.9992858,13.6028265 13.5272933,13.1254979 13.5272933,12.5366993 C13.5273154,12.2538954 13.6384386,11.9826846 13.8362146,11.7827359 C14.0339907,11.5827871 14.3022171,11.4704808 14.5818815,11.4705255 Z M17.6363953,11.911759 C17.9375651,11.9118055 18.1816785,12.1587221 18.1816478,12.4632727 C18.1816171,12.7678233 17.937454,13.0146896 17.6362842,13.0146741 C17.3351144,13.0146586 17.0909762,12.7677672 17.0909762,12.4632165 C17.0910222,12.1586413 17.3352012,11.911759 17.6363953,11.911759 Z M6.36359414,11.911759 C6.66476394,11.9118055 6.9088773,12.1587221 6.90884662,12.4632727 C6.90881593,12.7678233 6.66465284,13.0146896 6.36348303,13.0146741 C6.06231323,13.0146586 5.818175,12.7677672 5.818175,12.4632165 C5.818175,12.3169463 5.87564129,12.1766681 5.97792962,12.0732473 C6.08021795,11.9698266 6.21894766,11.9117366 6.36359414,11.911759 Z M19.6364044,12.1322914 C19.783476,12.13246 19.9160628,12.2220573 19.972329,12.3594655 C20.0285953,12.4968738 19.997458,12.6550269 19.8934388,12.7601655 C19.7894197,12.8653041 19.633008,12.8967185 19.4971509,12.8397576 C19.3612939,12.7827967 19.272752,12.6486804 19.2728194,12.4999579 C19.2728194,12.4024467 19.3111256,12.3089293 19.379311,12.2399784 C19.4474964,12.1710276 19.5399757,12.1322914 19.6364044,12.1322914 Z M4.36358506,12.1322914 C4.51065662,12.13246 4.64324343,12.2220573 4.6995097,12.3594655 C4.75577597,12.4968738 4.72463862,12.6550269 4.62061948,12.7601655 C4.51660035,12.8653041 4.36018863,12.8967185 4.22433159,12.8397576 C4.08847454,12.7827967 3.99993266,12.6486804 4.00000004,12.4999579 C4.00000004,12.4024467 4.03830624,12.3089293 4.10649165,12.2399784 C4.17467706,12.1710276 4.26715633,12.1322914 4.36358506,12.1322914 Z M10.7272806,9.19112819 C11.3095538,9.19122127 11.7815134,9.66860474 11.7814521,10.2574143 C11.7813907,10.8462239 11.3093316,11.3235068 10.7270584,11.3234757 C10.1447852,11.3234447 9.67277583,10.8461115 9.67277583,10.257302 C9.67286787,9.66844319 10.1449588,9.19112819 10.7272806,9.19112819 Z M13.2727922,9.19112819 C13.8550545,9.1912678 14.3269723,9.66867187 14.3268803,10.2574705 C14.3267882,10.8462691 13.8547212,11.3235222 13.2724589,11.3234757 C12.6901965,11.3234292 12.2182041,10.8461006 12.2182041,10.257302 C12.2182961,9.66841028 12.6904378,9.19108164 13.2727922,9.19112819 Z M15.7818869,9.63236164 C16.1432912,9.63245474 16.4362012,9.92877865 16.4361399,10.2942399 C16.4360785,10.6597012 16.143069,10.9559245 15.7816647,10.9558935 C15.4202604,10.9558625 15.1273006,10.6595889 15.1273006,10.2941276 C15.1273006,10.1185872 15.1962711,9.95023886 15.3190346,9.82612882 C15.4417981,9.70201879 15.6082952,9.63231696 15.7818869,9.63236164 Z M8.2181859,9.63236166 C8.57960103,9.6324082 8.87255288,9.92871151 8.8725222,10.2941838 C8.87249152,10.659656 8.57948993,10.9559091 8.21807479,10.9558935 C7.85665965,10.955878 7.56368292,10.6595999 7.56368292,10.2941276 C7.56372894,9.92863074 7.85674643,9.63236166 8.2181859,9.63236166 Z M5.96359233,8.52936225 C6.14008107,8.52936225 6.29919003,8.63687445 6.36672156,8.80176245 C6.43425309,8.96665044 6.39690682,9.15643944 6.27209851,9.2826247 C6.14729021,9.40880996 5.95960094,9.44653922 5.79655628,9.37821811 C5.63351162,9.30989699 5.5272233,9.1489814 5.527257,8.97051145 C5.52730303,8.72685784 5.72264353,8.52936225 5.96359233,8.52936225 Z M18.0363971,8.52936225 C18.2128859,8.52936225 18.3719948,8.63687445 18.4395264,8.80176245 C18.5070579,8.96665044 18.4697116,9.15643944 18.3449033,9.2826247 C18.220095,9.40880996 18.0324058,9.44653922 17.8693611,9.37821811 C17.7063164,9.30989699 17.6000281,9.1489814 17.6000618,8.97051145 C17.6001078,8.72685784 17.7954483,8.52936225 18.0363971,8.52936225 Z M12.0000364,7.42644708 C12.3614407,7.42654017 12.6543507,7.72286408 12.6542894,8.08832537 C12.654228,8.45378666 12.3612185,8.75000998 11.9998142,8.74997896 C11.6384099,8.74994794 11.3454501,8.45367434 11.3454501,8.08821304 C11.3454501,7.9126726 11.4144206,7.74432429 11.5371841,7.62021426 C11.6599476,7.49610422 11.8264446,7.42640239 12.0000364,7.42644708 Z M9.20002369,6.98529787 C9.50118263,6.98539097 9.74525417,7.23232813 9.74519283,7.53686779 C9.74513146,7.84140745 9.50096043,8.08824403 9.19980148,8.08821301 C8.89864253,8.088182 8.65452121,7.84129513 8.65452121,7.53675547 C8.65452121,7.39047062 8.71199894,7.25017968 8.81430529,7.14675648 C8.91661165,7.04333327 9.05536276,6.98525318 9.20002369,6.98529787 Z M14.8000491,6.98529787 C15.1012081,6.98539097 15.3452796,7.23232813 15.3452183,7.53686779 C15.3451569,7.84140745 15.1009859,8.08824403 14.7998269,8.08821301 C14.498668,8.088182 14.2545466,7.84129513 14.2545466,7.53675547 C14.2545466,7.39047062 14.3120244,7.25017968 14.4143307,7.14675648 C14.5166371,7.04333327 14.6553882,6.98525318 14.8000491,6.98529787 Z M8.14543557,5.44114927 C8.34623801,5.44148635 8.50902055,5.60609623 8.50902055,5.80915282 C8.50902055,6.0122094 8.34623801,6.17681929 8.14543557,6.17681929 C7.94463312,6.17681929 7.78185043,6.0122094 7.78185043,5.80915282 C7.78176212,5.71158322 7.82002923,5.61797919 7.88822423,5.54895543 C7.95641924,5.47993167 8.04894905,5.44114927 8.14543557,5.44114927 Z M15.8545539,5.44114927 C16.0553563,5.44148635 16.2181389,5.60609623 16.2181389,5.80915282 C16.2181389,6.0122094 16.0553563,6.17681929 15.8545539,6.17681929 C15.6537515,6.17681929 15.4909688,6.0122094 15.4909688,5.80915282 C15.4908805,5.71158322 15.5291476,5.61797919 15.5973426,5.54895543 C15.6655376,5.47993167 15.7580674,5.44114927 15.8545539,5.44114927 Z M12.0000364,5.00000003 C12.2410177,5.00004661 12.4363344,5.19763129 12.4362884,5.4413178 C12.4362423,5.68500432 12.2408511,5.88251354 11.9998697,5.88246701 C11.7588884,5.88242046 11.5635717,5.68483578 11.5636177,5.44114927 C11.5636177,5.32412002 11.6096028,5.21188644 11.6914519,5.12915007 C11.7733011,5.0464137 11.8843063,4.99995535 12.0000364,5.00000003 Z" id="Combined-Shape" fill="#FFFFFF"></path>
    </g>
</svg>