<svg width="100" height="101" viewBox="0 0 100 101" fill="none" xmlns="http://www.w3.org/2000/svg">
<path d="M90.3335 79.5231C93.3586 77.8128 95.8334 73.6148 95.8334 70.1942V30.8058C95.8334 27.3852 93.3586 23.1872 90.3335 21.4769L55.4999 1.78272C52.4747 0.0724281 47.5253 0.0724281 44.5001 1.78272L9.66656 21.4769C6.64142 23.1872 4.16669 27.3852 4.16669 30.8058V70.1942C4.16669 73.6148 6.64142 77.8128 9.66656 79.5231L44.5001 99.2173C47.5253 100.928 52.4747 100.928 55.4999 99.2173L90.3335 79.5231Z" fill="url(#paint0_linear_292_56523)"/>
<path d="M76.3257 40.5358C76.5573 39.979 76.7558 39.4994 76.9267 38.507L76.9212 38.496L76.9263 38.4655C77.1773 36.9598 77.3589 35.8705 76.855 34.8465C76.6951 34.5102 76.5849 34.4165 76.0335 33.9644L76.017 33.9479L75.9703 33.9091C75.5832 33.5876 75.0587 33.1519 74.2747 32.4263C72.7089 30.9764 71.926 30.2432 71.4628 29.3115C70.8067 27.9884 68.2485 26.5661 67.0024 26.1361C64.2567 25.1934 61.6489 25.4855 58.633 25.8273C58.1588 25.8825 57.6792 25.9376 57.1885 25.9872C55.6888 26.1416 54.1836 27.0126 52.9707 27.7238H52.9541C52.491 27.9939 52.0609 28.242 51.6805 28.4239C53.7426 28.4294 55.8983 28.7271 57.5689 29.7525C60.3697 31.4726 60.9376 34.9898 61.1251 38.2038C61.1787 39.0988 61.1177 40.1449 61.0534 41.2458L61.0472 41.3524C60.8985 43.8965 60.7302 46.777 62.0513 47.1513C63.1871 47.4765 66.4787 48.9154 70.305 50.8725C70.3979 50.9241 70.6211 50.9129 70.7443 50.9067L70.7681 50.9056C72.1065 50.7472 73.1093 49.4252 73.7175 48.6234L73.7344 48.6012C74.4766 47.6189 74.7867 46.7068 74.9747 46.1537L74.9804 46.1369C75.2022 45.477 75.2542 45.0983 75.329 44.5532L75.3333 44.5216V44.4775C75.3774 44.1247 75.427 43.7278 75.5318 43.182C75.7909 41.8258 76.0721 41.1422 76.3257 40.5358Z" fill="white"/>
<path d="M63.0944 52.2339C63.2212 52.0355 63.1385 51.7708 62.918 51.6937L62.8959 51.6881C62.3225 51.4897 61.7822 51.3353 61.3577 51.2636C59.7477 50.9935 58.4851 51.9472 58.0716 52.2615C57.6802 52.5592 57.6691 52.6088 57.6416 52.7466C57.5754 53.0719 57.4596 53.4523 56.9524 54.1469C55.9986 55.459 55.3535 55.8669 54.8793 56.1646L54.8654 56.1735C54.5373 56.3832 54.3353 56.5123 54.0744 56.9309C53.8649 57.2837 53.8704 57.62 53.909 58.4249C53.931 58.8271 53.9586 59.3299 53.942 59.9465V60.0843C53.942 60.7514 53.9255 61.2916 53.9034 61.7327C53.8924 61.9697 54.1074 62.1572 54.328 62.0689L54.3695 62.052C54.3915 62.0433 54.4121 62.0352 54.4327 62.0248L54.4502 62.0172C54.6611 61.9252 54.9053 61.8186 55.4417 61.7382C58.5954 61.2585 59.0475 61.1593 59.4941 60.8616C60.0344 60.5033 60.0785 60.0898 60.1282 59.1912L60.1296 59.1664C60.1789 58.3107 60.24 57.2495 60.9772 55.9882C61.1687 55.6608 61.3923 55.2459 61.6314 54.8025L61.6995 54.6761C62.2398 53.6728 62.6974 52.8458 63.0944 52.2339Z" fill="white"/>
<path d="M50.457 66.2481C50.3908 66.3363 50.3081 66.3804 50.1923 66.386C49.8615 66.397 49.6299 66.3198 49.4811 66.1324C49.1558 65.7354 49.1999 64.9416 49.2771 64.4785L50.6113 64.1257C50.7161 64.8313 50.7657 65.8567 50.4625 66.2537L50.457 66.2481Z" fill="white"/>
<path d="M50.5268 62.0802C50.5268 61.8542 50.5489 61.6337 50.5709 61.4407H50.5654C50.582 61.336 50.5985 61.2037 50.5985 61.1155C50.3669 61.0769 50.0086 61.1541 49.7329 61.2147C49.5951 61.2478 49.4682 61.2753 49.3414 61.2919C49.2863 61.4132 49.2863 61.8377 49.2863 62.0913V62.4165C49.2863 62.4655 49.2836 62.5158 49.2809 62.5667C49.2781 62.6191 49.2753 62.6722 49.2753 62.7252C49.2698 62.8631 49.2642 63.0615 49.2698 63.1994C49.7384 63.2049 50.0913 63.2049 50.5103 63.056C50.5321 62.9297 50.5298 62.6863 50.5278 62.4837L50.5268 62.3338V62.0802Z" fill="white"/>
<path d="M48.1028 65.84C48.0366 66.5236 47.8271 67.3671 47.1876 67.4939C46.9009 67.5545 46.7575 67.4663 46.6748 67.3836C46.2448 66.9812 46.1731 65.7739 46.2337 64.9028C46.5204 64.9028 46.9009 64.8422 47.3475 64.754C47.6176 64.6988 47.8933 64.6382 48.1083 64.5886C48.1359 64.9083 48.1524 65.3659 48.1083 65.8345L48.1028 65.84Z" fill="white"/>
<path d="M46.3597 63.8938L47.8042 63.3866C47.8097 62.8132 47.8097 61.8705 47.7711 61.4405L46.8559 61.4846H46.8007C46.7456 61.4846 46.7291 61.5012 46.718 61.5122C46.6905 61.5342 46.5912 61.65 46.5637 62.0194C46.5306 62.5431 46.4313 63.3314 46.3597 63.8938Z" fill="white"/>
<path d="M45.4669 62.9346C45.3842 63.1496 45.2905 63.767 45.2298 64.2025L43.4214 64.1474C43.5261 63.5851 43.664 63.0173 43.8184 62.5597C43.9782 62.1076 44.1437 61.7713 44.3035 61.6721C44.4855 61.5619 44.8825 61.5398 45.1306 61.7493C45.5275 62.0911 45.6378 62.477 45.4724 62.9346H45.4669Z" fill="white"/>
<path d="M44.2941 68.7895C44.4871 68.7729 44.647 68.6737 44.7848 68.4807H44.7793C45.3362 67.7255 45.3196 65.9393 45.2645 65.2447C44.8785 65.2667 44.0681 65.41 43.3182 65.5809C43.2962 66.4079 43.2521 68.1279 43.8199 68.6516C43.9468 68.7674 44.0956 68.8115 44.2941 68.7895Z" fill="white"/>
<path d="M42.4288 64.0981L42.3642 64.2697C42.2989 64.4422 42.2375 64.6044 42.1917 64.7541C41.9822 64.8203 41.3371 64.7651 40.681 64.6163L41.1331 61.7661C41.8775 61.5676 42.7376 61.507 42.9471 61.7275C43.2227 62.0197 42.6714 63.4751 42.4343 64.0981H42.4288Z" fill="white"/>
<path d="M39.9988 69.5445C40.7321 69.55 41.2559 69.3516 41.6087 68.9161C42.0553 68.3648 42.1435 67.4992 42.116 66.8101C42.1049 66.5841 42.0884 66.3746 42.0608 66.2037L39.6073 66.0549C39.2049 67.0307 38.8079 68.5522 39.2159 69.1972C39.3096 69.3406 39.4916 69.5335 39.9988 69.5445Z" fill="white"/>
<path d="M35.3747 45.8145L35.3777 45.8115L35.3832 45.817L35.3747 45.8145Z" fill="white"/>
<path d="M35.3336 45.806C35.3336 45.806 35.3574 45.81 35.3747 45.8145C35.3697 45.8198 35.3597 45.8309 35.3556 45.8391L35.3296 45.8756C35.1863 46.0766 35.0186 46.312 34.8263 46.7432C34.275 47.9671 34.264 48.6617 34.2584 49.2185C34.2584 49.5107 34.2474 49.7422 34.1702 50.0123C34.1151 50.1888 34.0269 50.3982 33.9221 50.6353C33.5968 51.3795 33.1723 52.3553 33.3653 53.6674C33.1006 53.5406 32.6981 53.2484 32.643 53.0996C32.6347 53.0638 32.6278 53.0279 32.6209 52.9921C32.6141 52.9563 32.6072 52.9204 32.5989 52.8846C32.5052 52.4766 32.45 52.2065 32.7092 51.6111C33.3928 50.0344 33.4755 49.6595 33.5307 49.2295C33.5417 49.1358 33.5527 49.0641 33.5803 48.9428C33.7236 48.3199 33.8008 47.7851 33.8615 47.3606L33.8636 47.3462C33.9561 46.7037 34.0175 46.2777 34.2364 45.9548C34.3191 45.8336 34.5451 45.7729 34.8649 45.7729C34.9917 45.7729 35.1351 45.7839 35.295 45.806H35.3336Z" fill="white"/>
<path d="M39.1582 32.4043C39.3726 32.2559 39.6309 32.1623 39.9056 32.1071C39.7848 32.4038 39.6368 32.7709 39.478 33.1706L39.4563 33.225C39.0923 34.1377 38.6857 35.1572 38.4911 35.5301C38.1664 36.1485 37.9092 36.5502 37.7014 36.8746L37.6586 36.9414L37.6385 36.9727C37.3997 37.3439 37.2079 37.6421 37.0631 38.0551C36.804 38.7993 36.7544 39.6262 36.9253 40.5303C36.4677 40.4807 35.7123 40.161 35.6241 39.7641C35.5579 39.4664 35.7454 39.1411 36.2912 38.248C36.3853 38.0975 36.4834 37.931 36.5889 37.7518L36.6441 37.6581C37.5572 36.1221 37.9366 34.968 38.2156 34.1194L38.2375 34.0527C38.5352 33.121 38.6786 32.7296 39.1582 32.4043Z" fill="white"/>
<path fill-rule="evenodd" clip-rule="evenodd" d="M61.8765 48.2319C59.6701 47.6102 59.8578 44.3916 60.0394 41.2772L60.0405 41.2581C60.1067 40.1555 60.1674 39.1081 60.1177 38.2536C59.9468 35.3317 59.4561 32.1508 57.1074 30.7119C54.5822 29.1683 50.4471 29.5211 47.8944 29.8409H47.8833C46.9516 30.1275 46.0749 30.3095 45.3968 30.2764C43.8972 30.1995 42.7314 29.5699 41.7032 29.0146L41.6917 29.0084C40.8867 28.5729 40.1865 28.198 39.5249 28.198H39.4146C37.4353 28.3248 36.5311 28.8099 35.7041 29.5487C35.4946 29.7306 35.241 30.2654 34.4139 32.6524C33.9989 33.8482 33.9192 34.5086 33.8427 35.1425L33.8405 35.1608L33.8377 35.1841C33.7669 35.7613 33.6931 36.3635 33.3884 37.2502C33.2157 37.7506 33.0786 38.1941 32.9484 38.6149L32.8536 38.9206C32.4456 40.2933 32.1203 41.3739 31.15 42.6584C31.0608 42.7773 30.9585 42.9354 30.8406 43.1177L30.7309 43.2868L30.6936 43.3457C30.48 43.6823 30.2199 44.0922 29.8763 44.5658C29.6227 44.9186 29.0383 46.2362 29.0714 46.6332C29.121 47.2727 29.325 47.6696 29.5621 48.1272L29.5718 48.1459C29.8065 48.5987 30.07 49.1072 30.1189 49.8141V49.9299C30.2127 51.06 30.0528 51.6279 27.9025 53.5519C26.5297 54.7812 25.5483 55.9665 24.8922 56.8376C24.8315 56.9147 24.9087 57.0305 25.008 57.0195H25.3167C25.3608 57.0195 25.3994 57.0195 25.438 57.0305C25.9563 57.0911 26.4635 57.3117 26.8329 57.6865C26.8991 57.7527 26.9928 57.7692 27.081 57.7362C27.4284 57.5928 27.8143 57.6149 28.1837 57.6479C28.6193 57.6865 29.0604 57.8188 29.3636 58.089C29.4794 58.1937 29.6338 58.2489 29.7881 58.2158C30.13 58.1441 30.4883 58.1551 30.8192 58.2764C31.0673 58.3701 31.2768 58.508 31.4477 58.6844C31.6131 58.8498 31.8888 58.8828 32.0872 58.7671C32.1699 58.723 32.2527 58.6844 32.3464 58.6513C32.815 58.4914 33.3278 58.5851 33.7854 58.745L33.8913 58.7831C34.0829 58.8515 34.2748 58.92 34.447 59.0317C34.7778 59.2522 34.9928 59.5664 35.1417 59.9193C35.252 60.1894 35.6214 60.2831 35.864 60.1122C36.1507 59.9082 36.3878 59.8807 36.6248 59.9854C36.7241 60.0295 36.8013 60.0847 36.8564 60.1563C37.0273 60.3548 37.303 60.5477 37.5566 60.4871C38.2623 60.3217 39.1169 60.432 39.7399 60.7682C39.9715 60.8895 40.1976 61.077 40.363 61.3581L40.3795 61.2313C40.3905 61.1762 40.4291 61.1266 40.4843 61.1101L40.6386 61.0604C40.997 60.9447 42.822 60.4209 43.5332 61.1707C43.5663 61.2038 43.6159 61.2038 43.649 61.1707C43.7482 61.066 43.8254 61.0053 43.875 60.9777C44.3382 60.6966 45.1321 60.68 45.6559 61.1321C45.7607 61.2203 45.9316 61.1872 46.0143 61.077C46.0639 61.0053 46.119 60.9447 46.1797 60.8951C46.3671 60.7352 46.5987 60.658 46.8578 60.6745L47.8613 60.6194L47.8876 60.6177C48.1651 60.5996 48.9059 60.5515 49.1459 60.4981C49.1625 60.4981 49.1845 60.4926 49.2011 60.4871C49.2806 60.4745 49.3697 60.4556 49.466 60.4352L49.5594 60.4154L49.57 60.4132C50.0526 60.3089 50.5992 60.1909 51.0481 60.3989C51.4836 60.6029 51.4285 61.0935 51.3734 61.5345C51.3513 61.711 51.3293 61.8984 51.3348 62.0748C51.3348 62.1575 51.3348 62.2403 51.3403 62.3229L51.3414 62.3945C51.3468 62.7419 51.3519 63.0624 51.2796 63.3152L51.3237 63.5247C51.3734 63.7287 51.5884 63.8445 51.7648 63.7342C52.1011 63.5247 52.454 63.2601 52.5643 63.1057C52.5753 63.0892 52.5808 63.0782 52.5863 63.0616C52.6029 63.0175 52.6304 62.9348 52.658 62.7584C52.7187 62.3835 52.7903 61.6283 52.7958 60.0902V59.9248C52.8069 59.3569 52.7848 58.8994 52.7628 58.4914L52.7607 58.4471C52.7229 57.6356 52.6929 56.9911 53.0991 56.3359C53.4911 55.7023 53.8727 55.4557 54.2387 55.2191L54.2679 55.2002L54.279 55.1932C54.7119 54.9193 55.2067 54.6062 56.0267 53.4747C56.4347 52.9124 56.4843 52.6863 56.5229 52.5044C56.6112 52.0799 56.7545 51.8263 57.383 51.3522L57.3906 51.3465C57.911 50.9549 59.4608 49.7883 61.5512 50.1394C62.2404 50.2551 63.3596 50.6245 64.4568 51.06C64.4954 51.0711 64.5395 51.0876 64.5726 51.1041L64.5784 51.1078L64.5901 51.1141L64.6061 51.1216L64.6277 51.1317C65.5816 51.5121 66.5078 51.9366 67.1198 52.2784C67.2963 52.3776 67.5168 52.317 67.6436 52.1626C67.8311 51.9311 68.0406 51.7932 68.2611 51.6609L68.2988 51.6375C68.3688 51.5941 68.4253 51.5591 68.4817 51.5121C68.6912 51.3357 68.6857 50.9663 68.4431 50.845C65.5099 49.34 62.7587 48.4965 61.849 48.2374L61.8765 48.2319ZM40.8316 48.91C40.1479 51.898 35.5166 55.1837 33.4105 55.1837H33.3664C33.3333 55.1837 33.2947 55.1837 33.2561 55.1727C33.2175 55.1671 33.1734 55.1561 33.1294 55.1451C33.12 55.1428 33.1106 55.1394 33.1008 55.1359C33.0875 55.1312 33.0735 55.1262 33.0576 55.123C32.6772 55.0018 32.1479 54.7096 31.7454 54.3126C31.4697 54.0425 31.2547 53.7228 31.183 53.381C31.1775 53.3506 31.1706 53.3203 31.1637 53.29C31.1569 53.2597 31.15 53.2293 31.1444 53.199C31.0287 52.6918 30.8908 52.0579 31.3374 51.0159C31.3785 50.9225 31.4171 50.8315 31.4532 50.7466L31.5028 50.63L31.5524 50.5142C31.5856 50.4405 31.6139 50.3693 31.6405 50.3021L31.6793 50.2055C31.7379 50.0638 31.7836 49.9437 31.8239 49.8376L31.8391 49.7976C31.8557 49.7535 31.8722 49.7093 31.8888 49.6708C32.0156 49.3124 32.0321 49.1746 32.0487 49.0368L32.0557 48.9886C32.0704 48.888 32.088 48.7677 32.1258 48.6068C32.2544 48.0605 32.3205 47.5974 32.3798 47.1823L32.385 47.1459C32.4897 46.3851 32.589 45.729 32.997 45.1226C33.0686 45.0179 33.1458 44.9242 33.2341 44.8415C33.2478 44.8277 33.263 44.8139 33.2781 44.8001C33.2933 44.7864 33.3085 44.7726 33.3223 44.7588L33.3578 44.7306C33.3785 44.7146 33.3984 44.6992 33.416 44.6816C33.5152 44.6099 33.62 44.5493 33.7358 44.4997C33.7743 44.4832 33.813 44.4666 33.8571 44.4501C33.9398 44.4225 34.0225 44.3949 34.1107 44.3729C34.4856 44.2792 34.9322 44.2681 35.445 44.3343C36.0018 44.3784 36.5201 44.4831 36.9832 44.6154C37.3692 44.7202 37.711 44.847 37.9977 44.9628L38.0859 44.9958C38.141 45.0179 38.1962 45.0399 38.2458 45.062C38.323 45.0951 38.4002 45.1281 38.4663 45.1557C38.5359 45.1905 38.6021 45.2184 38.6648 45.2449L38.7144 45.266L38.7806 45.299C39.1059 45.4479 39.3816 45.6078 39.6187 45.7787L39.6486 45.8014C39.7534 45.8812 39.8533 45.9572 39.9439 46.0378C39.977 46.0653 40.0101 46.0984 40.0377 46.126C40.06 46.1445 40.0797 46.1656 40.0987 46.1858L40.1259 46.2142C41.0136 47.1514 40.9694 48.2374 40.8206 48.899L40.8316 48.91ZM42.9763 37.581L42.8881 38.1212C42.6786 39.3451 42.2045 41.0155 40.4457 41.4455C38.753 41.859 38.3505 41.9472 37.1486 42.0023H37.0659C36.1893 42.0023 34.4966 41.4455 34.1934 40.0673C34.0005 39.1802 34.3915 38.5354 35.0359 37.4725C35.1462 37.296 35.263 37.1069 35.3843 36.8974C36.2234 35.4899 36.5576 34.4599 36.8251 33.635L36.8463 33.5699C37.108 32.7629 37.3241 32.0967 37.8819 31.5443C38.0142 31.412 38.1576 31.2908 38.3285 31.175C38.4388 31.0978 38.5545 31.0316 38.6703 30.971C38.8302 30.8938 38.9956 30.8222 39.1721 30.767C39.5635 30.6402 39.9881 30.5796 40.4071 30.5796C41.2286 30.5796 42.0446 30.8166 42.629 31.2852C42.8936 31.4947 43.263 31.9192 43.4836 33.1596C43.5939 33.7991 43.4064 34.9734 42.9653 37.5755L42.9763 37.581ZM55.5195 41.0541L55.4892 41.1059C54.9019 42.1097 54.5734 42.6711 54.0584 43.0939C53.0219 43.9484 51.8089 44.1634 50.8165 44.1634C50.0998 44.1634 49.4933 44.0531 49.1349 43.987C48.1036 43.7995 46.1905 43.4517 45.5511 41.9362C45.4243 41.6385 45.4243 41.4455 45.4243 41.2085C45.4243 40.9714 45.4243 40.569 45.3141 39.6207V39.5546C45.2589 39.1246 45.1983 38.6339 45.3251 38.011L45.3416 37.9338C45.7055 36.098 45.7992 35.8168 45.882 35.657C46.0694 35.2931 46.5105 35.1553 46.8744 35.3372C47.2272 35.5191 47.3706 35.9436 47.2052 36.302C47.1666 36.4067 47.0673 36.7981 46.7862 38.2205L46.7696 38.2977C46.6924 38.7001 46.7255 39.0033 46.7696 39.3892V39.4554C46.8964 40.4918 46.8964 40.9604 46.8964 41.214V41.3353C46.8964 41.3463 46.9019 41.3628 46.9075 41.3739C47.0122 41.6274 47.2438 41.8259 47.525 41.9858C47.7676 42.1236 48.0267 41.881 47.9771 41.6109C47.6738 40.0177 47.7014 38.1874 48.3079 37.0517C48.5119 36.6658 48.8868 36.0319 49.2397 35.4365V35.4254C49.2782 35.3648 49.3169 35.3041 49.3499 35.249C49.3637 35.2242 49.3788 35.1995 49.394 35.1747C49.4091 35.1499 49.4244 35.125 49.4381 35.1002C49.5261 34.9525 49.6124 34.8119 49.6917 34.6826C49.7514 34.5853 49.8075 34.4939 49.8572 34.4111C49.8737 34.3835 49.8902 34.3559 49.9068 34.3339C49.9123 34.3256 49.9178 34.316 49.9233 34.3063C49.9288 34.2967 49.9343 34.287 49.9399 34.2787C49.9674 34.2402 49.9895 34.2016 50.006 34.1685L50.0336 34.1244C50.0336 34.1189 50.0391 34.1134 50.0446 34.1078L50.0556 34.0901C50.063 34.0778 50.0703 34.0656 50.0777 34.0582C50.0942 34.0308 50.1108 34.0031 50.1163 33.9921V33.9755H50.1273C50.1788 33.8984 50.2302 33.825 50.2806 33.7531C50.3165 33.7018 50.352 33.6512 50.3865 33.6007C50.5794 33.336 50.3534 32.9942 50.0556 33.1321C49.5429 33.3636 49.1955 33.6282 49.1184 33.6889C48.7986 33.9425 48.3354 33.8928 48.0873 33.5731C47.8337 33.2533 47.8889 32.7903 48.2086 32.5367C48.5891 32.239 50.596 30.7725 52.9998 31.4617C54.7311 31.9523 55.6408 33.2754 55.9826 33.7771C56.2593 34.181 57.1018 35.4109 57.0743 37.1179C57.0524 38.4163 56.5132 39.3499 55.538 41.0387L55.5195 41.0706V41.0541Z" fill="white"/>
<path d="M39.0007 65.1617C38.488 66.2036 37.8539 67.1629 37.4625 67.6425C37.1372 66.7549 36.5638 64.7262 36.7182 63.0943C36.7182 63.0604 36.7233 63.029 36.7284 62.9985L36.7347 62.9565C36.7954 62.4548 36.9277 61.9918 37.1648 61.6169C37.3246 61.3743 37.7602 61.2255 38.2509 61.2255C38.6148 61.2255 39.0118 61.3082 39.3536 61.4901C39.5356 61.5893 39.7837 61.7878 39.8112 62.3611C39.8498 63.1384 39.4804 64.1859 38.9952 65.1617H39.0007Z" fill="white"/>
<path d="M66.9985 53.6125C67.0206 53.5629 66.993 53.5188 66.9544 53.4857V53.4691C66.7559 53.3093 65.8352 52.8517 64.7545 52.3886C64.5891 52.3169 64.3906 52.361 64.2859 52.5099C63.8172 53.1604 63.1777 54.3457 62.7201 55.2002C62.4554 55.6963 62.2018 56.1705 61.9813 56.5453C61.3808 57.5809 61.3307 58.4624 61.2867 59.2393L61.2863 59.2452C61.2368 60.1646 61.1858 61.111 60.1508 61.7991C59.4561 62.2622 58.8331 62.3725 55.6353 62.8576C55.2383 62.9238 55.0894 62.9844 54.913 63.0616C54.698 63.1553 54.4664 63.2545 53.9426 63.3593C53.7882 63.3869 53.6725 63.4971 53.5898 63.6294V63.6404C53.3416 64.0649 52.5146 64.6879 51.8089 64.9966C51.638 65.0738 51.5222 65.2337 51.5112 65.4156C51.4836 65.9118 51.3733 66.3969 51.1197 66.7332C50.9047 67.0088 50.6014 67.1687 50.2431 67.1852H50.1383C49.4657 67.1852 49.0742 66.8875 48.8647 66.6339C48.8482 66.6119 48.8096 66.6174 48.8041 66.645C48.6111 67.4223 48.1976 68.1114 47.365 68.2768C47.2437 68.3044 47.1335 68.3154 47.0287 68.3154C46.6042 68.3154 46.312 68.139 46.13 67.9681C46.0528 67.9019 45.915 67.9295 45.8874 68.0287C45.7937 68.365 45.6614 68.6737 45.4794 68.9273C45.2038 69.3132 44.8344 69.5448 44.4043 69.5889C44.3437 69.5999 44.283 69.5999 44.2279 69.5999C43.8695 69.5999 43.5497 69.4786 43.2906 69.2416C43.0645 69.0321 42.5352 69.0431 42.3533 69.2967C42.3368 69.316 42.3216 69.3366 42.3064 69.3573C42.2913 69.378 42.2761 69.3987 42.2596 69.418C41.7634 70.0354 41.0245 70.3496 40.0652 70.3496H39.999C39.1665 70.3386 38.742 69.9472 38.538 69.6219C38.4498 69.4786 38.3836 69.3242 38.334 69.1534C38.2458 68.8226 37.7054 68.7123 37.3636 68.7123C37.3463 68.7123 37.3305 68.7093 37.3155 68.7064C37.3017 68.7038 37.2885 68.7013 37.2754 68.7013C37.0328 68.6627 36.9391 68.4587 36.8674 68.2989C36.8509 68.2713 36.8067 68.2823 36.8067 68.3154C36.8398 68.5855 36.8784 68.8557 36.9225 69.1313C36.9446 69.2857 36.9446 69.6605 36.4373 69.9086C36.0845 70.0795 35.478 70.1677 34.8054 70.1677C33.5703 70.1677 32.1038 69.87 31.4973 69.2471L31.4791 69.2322C31.3623 69.1368 31.2318 69.0302 31.1113 68.8887C30.8963 68.6406 30.4663 68.5359 30.1851 68.7013C29.9535 68.8391 29.7881 68.8667 29.6723 68.8667C29.6412 68.8667 29.6154 68.8632 29.5929 68.8601C29.5754 68.8578 29.5599 68.8557 29.5455 68.8557C28.9556 68.773 28.5641 68.2217 28.2498 67.4554C28.1782 67.29 27.9907 67.1963 27.8088 67.2183C27.4669 67.2624 27.1196 67.279 26.7722 67.2845C26.4359 67.29 26.0941 67.279 25.7908 67.1191C25.4876 66.9592 25.3056 66.6836 25.1954 66.3693C25.1788 66.3418 25.1402 66.3252 25.1127 66.3418C25.1072 66.3473 25.0961 66.3473 25.0961 66.3473C25.0686 66.3583 25.041 66.3638 25.0134 66.3693C24.8425 66.3969 24.6716 66.3969 24.5117 66.3693C24.429 66.3583 24.3463 66.3363 24.2691 66.3087C24.1754 66.2756 24.0872 66.237 24.0045 66.1819C23.9548 66.1543 23.8942 66.2039 23.9163 66.2536L23.9273 66.2756C25.7026 70.3166 26.7777 72.7533 29.3195 74.1094C30.3852 74.6833 31.9928 74.867 35.168 75.23L35.2519 75.2396C37.6062 75.5042 39.3926 75.5042 42.3478 75.4987C45.1927 75.4987 46.0308 75.3774 46.5876 75.2616C47.5133 75.0711 47.9981 74.8751 48.5092 74.6685L48.5284 74.6607C49.1018 74.4292 49.6972 74.1921 50.8275 73.9716C51.8891 73.7712 53.1263 73.7252 55.553 73.6347L55.6849 73.6298C57.0632 73.5747 57.791 73.5747 58.2266 73.5747C58.7283 73.5747 58.7393 73.5747 58.9158 73.5196C60.8391 72.9465 62.0023 71.1506 63.1266 69.4147L63.1335 69.4041C64.0296 68.0188 64.7386 66.9228 65.0412 65.2668C65.1901 64.4453 65.157 63.9381 65.0964 63.0947C65.0302 62.2236 64.953 61.0273 65.0302 58.8938C65.0964 57.0746 65.2232 56.3689 65.6146 55.5916C65.888 55.0505 66.183 54.699 66.4406 54.3921L66.4472 54.3843L66.4711 54.356C66.6758 54.1149 66.8499 53.9097 66.9985 53.6125Z" fill="white"/>
<path d="M35.9061 62.9896C35.7793 64.0922 35.7021 65.5696 35.8785 67.4937C35.9281 68.0339 35.9998 68.6017 36.088 69.1696C35.9392 69.2523 35.4815 69.368 34.6821 69.357C33.5243 69.335 32.3995 69.0428 32.0632 68.6789L32.008 68.6293C31.7269 68.4033 31.5449 68.2544 31.5173 67.852C31.5063 67.7142 31.567 67.5819 31.6938 67.3889C31.7455 67.3071 31.814 67.2118 31.8941 67.1004L31.9639 67.003L31.9671 66.9987C32.1596 66.7403 32.4009 66.4163 32.6476 65.9997C33.3523 64.8056 33.6319 64.4197 33.9676 63.9562L33.9929 63.9213C34.0204 63.8827 34.0481 63.8441 34.0811 63.8055C34.2851 63.5244 34.5277 63.1881 34.8916 62.6368C35.1618 62.2288 35.3878 61.9036 35.5697 61.65C35.8785 61.231 36.0825 60.9995 36.2093 60.8782C36.1928 61.0656 36.1487 61.3357 36.1046 61.5838L36.087 61.6938C36.0295 62.0525 35.961 62.4799 35.9061 62.9841V62.9896Z" fill="white"/>
<path d="M34.4689 61.3857C34.4303 61.0053 34.3642 60.6304 34.2263 60.2721C34.2208 60.2638 34.2084 60.2362 34.196 60.2087C34.1836 60.1811 34.1712 60.1535 34.1657 60.1453L34.083 60.0129C34.083 60.0129 34.0554 59.9744 34.0389 59.9578C34.0168 59.9358 33.9948 59.9137 33.9672 59.8917L33.9562 59.8806C33.9452 59.8696 33.9286 59.8586 33.9121 59.8476C33.8846 59.8311 33.8569 59.8145 33.8294 59.8035C33.824 59.8035 33.8174 59.7996 33.8095 59.795C33.8011 59.79 33.7911 59.7842 33.7797 59.7814H33.7687L33.7577 59.7704H33.7467C33.7467 59.7704 33.7356 59.7649 33.7301 59.7593L33.6925 59.7452C33.4839 59.6668 33.2703 59.5866 33.052 59.5554H33.0354L32.9527 59.5499H32.7763C32.7518 59.5572 32.7274 59.5634 32.7034 59.5696C32.6734 59.5772 32.644 59.5848 32.6164 59.594C32.5944 59.605 32.5723 59.616 32.5502 59.6326L32.5401 59.6394C32.5254 59.6495 32.5084 59.6612 32.4951 59.6656H32.4896L32.4629 59.6936C32.4463 59.7114 32.4306 59.7283 32.4124 59.7428L32.3923 59.7652C32.3826 59.7764 32.3719 59.7888 32.3628 59.7979C32.3628 59.7979 32.3573 59.7979 32.3573 59.8035H32.3517V59.8145C32.3517 59.8145 32.3352 59.8365 32.3352 59.842C32.247 59.9798 32.1587 60.1178 32.065 60.25C31.85 60.5752 31.635 60.9006 31.4145 61.2203C31.2105 61.5125 31.012 61.7991 30.8135 62.0913C30.7584 62.1712 30.7032 62.2526 30.6481 62.3339C30.5929 62.4152 30.5378 62.4965 30.4827 62.5765C30.4744 62.5902 30.4648 62.604 30.4552 62.6177C30.4455 62.6315 30.4358 62.6454 30.4275 62.6591C30.4937 62.6729 30.5585 62.6853 30.6233 62.6977C30.6877 62.7101 30.7532 62.7226 30.819 62.7363C31.1167 62.7915 31.4089 62.8411 31.7122 62.8852C32.3297 62.9679 32.9582 63.0065 33.5868 62.9844H33.675C33.8238 62.7694 34.0003 62.5103 34.2263 62.1685L34.2346 62.1559C34.3581 61.9679 34.4715 61.7955 34.5847 61.6337C34.5351 61.5566 34.502 61.4628 34.491 61.3636L34.4689 61.3857Z" fill="white"/>
<path d="M30.8511 66.8322C31.6836 65.6525 32.2129 64.4176 32.268 63.9435C32.1922 63.9399 32.1188 63.9315 32.0446 63.9231C32.0055 63.9187 31.9662 63.9142 31.9262 63.9104C30.1894 63.9049 28.9544 63.8001 28.2542 63.4087C28.2211 63.938 28.2542 64.7814 28.4362 65.4099C28.5134 65.6911 28.6126 66.0218 28.7173 66.3581C28.982 67.1851 29.3128 68.0175 29.6491 68.0616C29.7318 68.0506 30.1564 67.8135 30.8511 66.8322Z" fill="white"/>
<path d="M31.0391 60.0185C31.0391 60.0185 31.0226 60.0461 31.017 60.0571L30.7593 60.435C30.5471 60.7466 30.3341 61.0593 30.1183 61.3692C30.0413 61.4819 29.9643 61.5933 29.8873 61.7047C29.8102 61.8163 29.7324 61.9288 29.6552 62.0418C29.6142 62.1019 29.5651 62.1661 29.5138 62.2331C29.4617 62.3011 29.4075 62.3719 29.3575 62.4442C29.1094 62.3891 28.8668 62.3284 28.6187 62.2623C28.4202 62.2071 28.2217 62.141 28.0287 62.0638C28.0124 62.0568 27.9961 62.0508 27.9803 62.045C27.9586 62.037 27.9375 62.0292 27.9185 62.0197C27.8854 61.9536 27.8413 61.8984 27.7861 61.8543C27.8578 61.7055 27.9295 61.5565 28.0012 61.4188C28.1335 61.1542 28.2713 60.8951 28.4202 60.6415C28.6848 60.1839 29.0046 59.7208 29.4512 59.4231C29.4733 59.4066 29.4953 59.39 29.5229 59.379C29.6993 59.2688 29.8702 59.1916 30.0853 59.164H30.3554C30.3554 59.164 30.372 59.164 30.383 59.175C30.4106 59.1833 30.4367 59.1902 30.4629 59.1971C30.4891 59.204 30.5153 59.2109 30.5429 59.2191C30.5535 59.2263 30.5642 59.2311 30.5764 59.2366L30.598 59.2467L30.6271 59.2646C30.663 59.2864 30.7001 59.309 30.7303 59.3349C30.6642 59.2798 30.8241 59.4507 30.8241 59.4397C30.9564 59.6216 30.995 59.7759 31.0336 60.024L31.0391 60.0185Z" fill="white"/>
<path d="M28.6693 58.7754L28.673 58.7723V58.7778L28.6693 58.7754Z" fill="white"/>
<path d="M28.5572 58.7117C28.5944 58.7276 28.6367 58.7537 28.6693 58.7754C28.1199 59.2271 27.7184 59.8322 27.3884 60.4593C27.252 60.7119 27.1244 60.9704 26.997 61.2284L26.8536 61.5177C26.8435 61.5413 26.8313 61.5628 26.8196 61.5835C26.8122 61.5967 26.8049 61.6096 26.7984 61.6225C26.633 61.5839 26.4621 61.5398 26.3022 61.4847C26.1258 61.4295 25.9549 61.3634 25.7895 61.2917C25.7511 61.2725 25.714 61.2547 25.677 61.2369C25.6398 61.2189 25.602 61.2008 25.5634 61.1814C25.7047 60.9131 25.8701 60.6567 26.0322 60.4056L26.1148 60.2773C26.3794 59.8639 26.6661 59.4614 26.9749 59.081L26.984 59.0697C27.0973 58.9294 27.2216 58.7754 27.3773 58.6841C27.5295 58.5928 27.7143 58.6042 27.8931 58.6152L27.9397 58.6179L27.9891 58.6205C28.1789 58.6303 28.3797 58.6407 28.5572 58.7117Z" fill="white"/>
<path d="M27.7983 66.1706C27.7983 66.1706 27.7487 66.2202 27.7266 66.2478C27.7101 66.2533 27.688 66.2588 27.677 66.2588C27.5898 66.2697 27.5001 66.2758 27.4113 66.2819C27.3653 66.285 27.3196 66.2881 27.2745 66.2919C27.0154 66.3084 26.7563 66.3195 26.4971 66.3084C26.3538 66.3029 26.2214 66.2809 26.1608 66.1871C26.0861 66.0729 26.0534 65.8884 26.0237 65.7206C26.0161 65.6779 26.0087 65.6364 26.0009 65.5973C25.83 64.6546 25.8079 63.6733 25.9292 62.7251C26.4199 62.9015 26.9272 63.0393 27.4454 63.122C27.3352 63.982 27.5226 65.2389 27.6329 65.6248C27.6577 65.7158 27.6839 65.8054 27.7101 65.895C27.7363 65.9845 27.7625 66.0741 27.7873 66.1651L27.7983 66.1706Z" fill="white"/>
<path d="M25.0348 60.1561C25.3877 59.5662 25.7847 58.9984 26.2202 58.4636C26.0107 58.2211 25.7626 58.0722 25.4373 58.0116C25.3326 57.9895 25.1561 57.973 25.0183 58.0116C24.8894 58.0498 24.8018 58.1665 24.7198 58.2759L24.682 58.3258C24.4284 58.6511 24.2023 58.9984 23.9983 59.3567C23.8936 59.5442 23.7943 59.7426 23.7006 59.9411L23.6658 60.0088C23.6247 60.0879 23.5757 60.182 23.5462 60.2664L23.5584 60.2743C23.5687 60.2807 23.5767 60.2859 23.5848 60.2939L23.6461 60.3417C23.6889 60.3748 23.7318 60.4079 23.7502 60.4262C23.8715 60.5144 23.9928 60.6026 24.1196 60.6798C24.285 60.7846 24.4394 60.8507 24.6103 60.9003C24.6949 60.7111 24.806 60.5306 24.9156 60.3525C24.956 60.2868 24.9962 60.2215 25.0348 60.1561Z" fill="white"/>
<path d="M22.8591 60.79C22.8646 60.7624 22.9032 60.7569 22.9198 60.7845C23.0356 60.9444 23.1899 61.0822 23.3553 61.2145C23.3854 61.236 23.4146 61.2583 23.4437 61.2804C23.4892 61.3152 23.5343 61.3496 23.5814 61.3799C23.5924 61.3909 23.5979 61.4019 23.5979 61.4185C23.4215 62.1462 23.3002 62.918 23.2947 63.6788C23.2947 63.7229 23.2285 63.7284 23.223 63.6898C23.008 62.7802 22.7213 61.3303 22.8591 60.7955V60.79Z" fill="white"/>
<path d="M24.8916 64.3627C24.8641 63.7067 24.9082 63.0562 24.9964 62.4056C24.8775 62.3504 24.7553 62.2985 24.6349 62.2473C24.5989 62.2321 24.5632 62.2169 24.5277 62.2017C24.4341 62.1615 24.3607 62.1315 24.2941 62.1043C24.2509 62.0867 24.2106 62.0702 24.1694 62.0528C24.0426 62.7144 23.9819 63.3869 24.0095 64.0595C24.0205 64.4013 24.0591 64.7707 24.2355 65.0739C24.3017 65.1841 24.4009 65.2944 24.4947 65.355C24.5066 65.3624 24.5167 65.3688 24.5257 65.3745C24.5706 65.4031 24.5875 65.4138 24.6656 65.4322H24.7483C24.831 65.4212 24.9137 65.4267 24.9909 65.4432V65.4322C24.9468 65.0794 24.9027 64.7211 24.8916 64.3627Z" fill="white"/>
<defs>
<linearGradient id="paint0_linear_292_56523" x1="50" y1="0.5" x2="50" y2="100.5" gradientUnits="userSpaceOnUse">
<stop stop-color="#3F80FE"/>
<stop offset="1" stop-color="#0054F9"/>
</linearGradient>
</defs>
</svg>
