<svg width="24" height="24" viewBox="0 0 24 24" fill="none" xmlns="http://www.w3.org/2000/svg">
<path d="M21.68 18.9655C22.4061 18.5551 23 17.5476 23 16.7266V7.27339C23 6.45245 22.4061 5.44493 21.68 5.03446L13.32 0.307852C12.5939 -0.102617 11.4061 -0.102617 10.68 0.307852L2.31997 5.03446C1.59394 5.44493 1 6.45245 1 7.27339V16.7266C1 17.5476 1.59394 18.5551 2.31997 18.9655L10.68 23.6921C11.4061 24.1026 12.5939 24.1026 13.32 23.6921L21.68 18.9655Z" fill="url(#paint0_linear_12085_120662)"/>
<path d="M11.9804 13.0092C12.5489 13.0092 13.0098 12.5483 13.0098 11.9797C13.0098 11.4112 12.5489 10.9503 11.9804 10.9503C11.4119 10.9503 10.951 11.4112 10.951 11.9797C10.951 12.5483 11.4119 13.0092 11.9804 13.0092Z" fill="white"/>
<path fill-rule="evenodd" clip-rule="evenodd" d="M5.80363 10.1267C5.80363 10.074 5.81003 10.0227 5.82207 9.97384C4.71741 8.92903 4.16942 8.06539 4.42997 7.61482C4.84625 6.89495 7.20818 7.44062 10.1772 8.83245C10.4609 5.56564 11.1706 3.25 12.001 3.25C12.8327 3.25 13.5433 5.57303 13.8261 8.84809C14.451 8.55804 15.0488 8.30507 15.6074 8.09302C15.6052 8.0712 15.604 8.04904 15.604 8.0266C15.604 7.68547 15.8714 7.40893 16.2011 7.40893C16.4192 7.40893 16.61 7.52989 16.7142 7.71049C18.2456 7.23939 19.3241 7.18064 19.5909 7.64573C20.0042 8.36623 18.3498 10.1352 15.6559 12.0078C18.3401 13.8915 19.9887 15.667 19.572 16.3858C19.1556 17.106 16.795 16.5597 13.8249 15.1668C13.5413 18.4344 12.8315 20.7508 12.001 20.7508C11.4748 20.7508 10.9971 19.821 10.6455 18.3087C10.3733 18.2511 10.1685 18.002 10.1685 17.7035C10.1685 17.4925 10.2708 17.3063 10.4268 17.1948C10.3239 16.572 10.2391 15.8859 10.1757 15.152C7.1932 16.5364 4.82449 17.076 4.41068 16.3546C3.99737 15.634 5.65193 13.8649 8.34607 11.9923C7.71471 11.5494 7.14069 11.1125 6.63737 10.694C6.56481 10.7264 6.4848 10.7444 6.40073 10.7444C6.07096 10.7444 5.80363 10.4679 5.80363 10.1267ZM10.1421 9.27105C10.1043 9.78622 10.0769 10.3225 10.0611 10.8748C9.5838 11.167 9.12681 11.4612 8.69396 11.7538C7.87264 11.1651 7.22855 10.6529 6.93094 10.4111C6.97368 10.3259 6.99783 10.2293 6.99783 10.1267C6.99783 9.78559 6.7305 9.50905 6.40073 9.50905C6.26734 9.50905 6.14417 9.5543 6.04477 9.63077C4.889 8.52119 4.78963 7.97809 4.78963 7.97809L4.78907 7.97601C4.70902 7.78621 4.87801 7.7405 4.87801 7.7405C5.62616 7.59921 6.67706 7.92118 6.67706 7.92118C7.6655 8.14626 8.92156 8.67523 10.1421 9.27105ZM11.0323 18.2563C11.2282 18.155 11.3627 17.9455 11.3627 17.7035C11.3627 17.3746 11.1143 17.1058 10.8009 17.0869C10.6976 16.4193 10.6243 15.6921 10.5728 14.9645C11.0356 14.742 11.5114 14.5004 11.9953 14.241C12.4888 14.5084 12.9739 14.7573 13.4456 14.9859C13.3098 16.3864 13.1305 17.4153 13.1305 17.4153C12.7162 19.7624 12.136 20.2569 12.136 20.2569C12.0125 20.4217 11.889 20.2981 11.889 20.2981C11.3915 19.7217 11.1428 18.651 11.1428 18.651C11.1039 18.5256 11.0671 18.3937 11.0323 18.2563ZM15.7874 8.47198C15.2342 8.67823 14.5957 8.93863 13.8595 9.26631C13.8976 9.78432 13.9251 10.3237 13.941 10.8793C14.4256 11.179 14.8893 11.4807 15.3279 11.7806C16.2585 11.1193 17.3737 10.2397 18.4311 9.18413C18.4311 9.18413 19.2238 8.37562 19.265 7.92734C19.2688 7.89107 19.2596 7.85463 19.2391 7.82448C19.2186 7.79432 19.188 7.7724 19.1529 7.7626C18.9364 7.70298 18.3167 7.64695 16.7906 8.12574C16.7447 8.41974 16.4983 8.64427 16.2011 8.64427C16.0405 8.64427 15.8947 8.57868 15.7874 8.47198ZM10.5142 9.45524C10.5025 9.58042 10.491 9.70828 10.4799 9.83886C10.4799 9.83886 10.4696 10.1372 10.4632 10.632C10.648 10.522 10.8355 10.4124 11.0256 10.3034C11.2059 10.2 11.3857 10.0988 11.5645 9.99991C11.2255 9.81872 10.8727 9.6351 10.5142 9.45524ZM12.0076 9.75864C11.5142 9.49117 11.0291 9.24233 10.5574 9.01373C10.9768 4.93301 11.6479 3.92332 11.8857 3.68812C11.9115 3.66257 11.9456 3.64696 11.9818 3.64403C12.018 3.6411 12.0541 3.65104 12.0837 3.67211C12.451 3.93235 12.759 5.02071 12.759 5.02071C13.1492 6.46884 13.3568 7.87909 13.4667 9.0176C12.9924 9.24484 12.5043 9.49238 12.0076 9.75864ZM11.9875 10.2285C11.5549 10.4741 11.0276 10.7805 10.4589 11.1261C10.4566 11.6356 10.4602 12.2634 10.4781 12.9482C10.8389 13.1712 11.2089 13.3875 11.5794 13.5874C11.5794 13.5874 11.7267 13.6778 11.9955 13.8281C12.3909 13.6175 12.7858 13.3942 13.1651 13.1611C13.1651 13.1611 13.3174 13.0789 13.5824 12.9215C13.5967 12.4714 13.5996 12.0154 13.5863 11.568C13.5863 11.568 13.5903 11.413 13.5868 11.135C13.148 10.8774 12.5977 10.5618 11.9875 10.2285ZM13.5752 10.6559C13.3811 10.5388 13.1838 10.4222 12.9838 10.3062C12.795 10.1967 12.607 10.0898 12.4199 9.98539C12.8537 9.74385 13.1186 9.60376 13.1186 9.60376C13.2495 9.54286 13.3777 9.48388 13.5032 9.42675C13.5421 9.90328 13.5635 10.3199 13.5752 10.6559ZM13.9516 11.3508C13.9551 11.5653 13.9569 11.7819 13.9569 12.0004C13.9569 12.235 13.9549 12.4675 13.9508 12.6975C14.2386 12.5188 14.5925 12.2906 14.99 12.0169C14.8745 11.9346 14.7559 11.8508 14.6341 11.7656C14.6341 11.7656 14.3793 11.606 13.9516 11.3508ZM15.3086 12.2459C14.8755 12.5387 14.4184 12.833 13.9409 13.1252C13.9247 13.6912 13.8964 14.2402 13.8571 14.7669C14.8958 15.2411 16.2162 15.766 17.6602 16.1532C17.6602 16.1532 18.7564 16.4324 19.1657 16.245C19.1989 16.2299 19.2256 16.2037 19.2413 16.1708C19.257 16.138 19.2605 16.1006 19.2514 16.0654C19.1666 15.7427 18.6299 14.655 15.3086 12.2459ZM13.4816 14.5921C13.5156 14.1972 13.5449 13.7796 13.5652 13.3523C13.3718 13.4677 13.1753 13.5826 12.9761 13.6969C12.7746 13.8124 12.574 13.9251 12.3745 14.035C12.6728 14.1941 13.0466 14.3856 13.4816 14.5921ZM11.6101 14.0293C11.4146 13.9205 11.2179 13.8088 11.0205 13.6944C10.8418 13.5908 10.6652 13.4867 10.4912 13.3822C10.5042 13.7617 10.5219 14.154 10.5457 14.5494C10.8892 14.3891 11.2479 14.215 11.6101 14.0293ZM10.0508 12.6784C10.047 12.4547 10.045 12.2285 10.045 12.0004C10.045 11.7909 10.0467 11.583 10.0499 11.3772C9.72463 11.5789 9.39048 11.7913 9.05662 12.0104C9.37068 12.2298 9.70474 12.4555 10.0508 12.6784ZM8.70764 12.2423C9.13632 12.5344 9.58866 12.8282 10.0609 13.1201C10.0768 13.6763 10.1043 14.2162 10.1424 14.7346C8.85415 15.3169 7.86637 15.6754 7.86637 15.6754C5.62424 16.4834 4.90691 16.226 4.90691 16.226H4.90683C4.70094 16.2001 4.74745 16.0308 4.74745 16.0308C5.00001 15.3127 5.80372 14.5641 5.80372 14.5641C6.49382 13.8216 7.5807 12.9998 8.70764 12.2423Z" fill="white"/>
<defs>
<linearGradient id="paint0_linear_12085_120662" x1="12" y1="-3.25" x2="12" y2="26.375" gradientUnits="userSpaceOnUse">
<stop stop-color="#5064FB"/>
<stop offset="1" stop-color="#66A1FF"/>
</linearGradient>
</defs>
</svg>
