<?xml version="1.0" encoding="UTF-8"?>
<svg width="24px" height="24px" viewBox="0 0 24 24" version="1.1" xmlns="http://www.w3.org/2000/svg" xmlns:xlink="http://www.w3.org/1999/xlink">
    <title>Assets/Crypto/btc</title>
    <defs>
        <linearGradient x1="50%" y1="0%" x2="50%" y2="100%" id="linearGradient-1">
            <stop stop-color="#FCC538" offset="0%"></stop>
            <stop stop-color="#F7931A" offset="100%"></stop>
        </linearGradient>
    </defs>
    <g id="Assets/Crypto/btc" stroke="none" stroke-width="1" fill="none" fill-rule="evenodd">
        <path d="M21.6800305,18.9655351 C22.4060645,18.5550661 23,17.5475512 23,16.7266131 L23,7.27338689 C23,6.45244882 22.4060645,5.44493392 21.6800305,5.03446489 L13.3199695,0.307851775 C12.5939355,-0.102617258 11.4060645,-0.102617258 10.6800305,0.307851775 L2.31996952,5.03446489 C1.59393547,5.44493392 1,6.45244882 1,7.27338689 L1,16.7266131 C1,17.5475512 1.59393547,18.5550661 2.31996952,18.9655351 L10.6800305,23.6921482 C11.4060645,24.1026173 12.5939355,24.1026173 13.3199695,23.6921482 L21.6800305,18.9655351 Z" id="Stroke-3" fill="url(#linearGradient-1)"></path>
        <path d="M16.4354702,10.655833 C16.6375284,9.30824618 15.6091569,8.58381541 14.2029969,8.10054505 L14.6591345,6.27506813 L13.5454355,5.99814506 L13.1013516,7.77551648 C12.8085735,7.70272528 12.5078652,7.63404835 12.2090601,7.5660044 L12.6563161,5.77692308 L11.5432515,5.5 L11.0867966,7.32484395 C10.8444537,7.26977583 10.6065516,7.21534066 10.375628,7.15805714 L10.3768968,7.15236044 L8.84100081,6.76973187 L8.54473345,7.95654506 C8.54473345,7.95654506 9.37104671,8.14548571 9.35360057,8.15719561 C9.80466293,8.26954724 9.88618406,8.56735827 9.87254436,8.80345495 L9.35296618,10.8830681 C9.38405202,10.8909802 9.42433679,10.9023736 9.46874519,10.9200967 C9.43163247,10.9109187 9.39198209,10.9007912 9.35106293,10.8909802 L8.62276534,13.804211 C8.56757202,13.9409319 8.42768558,14.1460132 8.11238603,14.0681583 C8.12348808,14.0842989 7.30288448,13.8665583 7.30288448,13.8665583 L6.75,15.1385055 L8.19929959,15.4989802 C8.46892194,15.5663912 8.73315187,15.636967 8.99325816,15.7034286 L8.53236254,17.5497934 L9.6447927,17.8267165 L10.1012475,15.9999736 C10.4051278,16.0822593 10.7001264,16.1582154 10.988781,16.2297407 L10.5339122,18.0479385 L11.6476112,18.3248615 L12.1085069,16.481978 C14.0076,16.8405538 15.435647,16.6959209 16.0367463,14.9821627 C16.521115,13.6022945 16.0126389,12.8063385 15.01345,12.2873055 C15.7411133,12.1198857 16.2892397,11.6423121 16.4354702,10.655833 L16.4354702,10.655833 Z M13.8908694,14.215956 C13.5467044,15.5958242 11.2181186,14.8498726 10.463176,14.6628308 L11.0747429,12.2167297 C11.8296856,12.4047209 14.2505773,12.7769055 13.8908694,14.215956 Z M14.2353516,10.6358945 C13.9213208,11.8910681 11.9832117,11.2533538 11.3545158,11.097011 L11.9089863,8.87846153 C12.5376822,9.03480439 14.5623877,9.32660219 14.2353516,10.6358945 Z" id="Shape" fill="#FFFFFF" fill-rule="nonzero"></path>
    </g>
</svg>