<svg width="24" height="24" viewBox="0 0 24 24" fill="none" xmlns="http://www.w3.org/2000/svg">
<path d="M21.68 18.9655C22.4061 18.5551 23 17.5476 23 16.7266V7.27339C23 6.45245 22.4061 5.44493 21.68 5.03446L13.32 0.307852C12.5939 -0.102617 11.4061 -0.102617 10.68 0.307852L2.31997 5.03446C1.59394 5.44493 1 6.45245 1 7.27339V16.7266C1 17.5476 1.59394 18.5551 2.31997 18.9655L10.68 23.6921C11.4061 24.1026 12.5939 24.1026 13.32 23.6921L21.68 18.9655Z" fill="url(#paint0_linear_1481_13604)"/>
<path d="M21.68 18.9655C22.4061 18.5551 23 17.5476 23 16.7266V7.27339C23 6.45245 22.4061 5.44493 21.68 5.03446L13.32 0.307852C12.5939 -0.102617 11.4061 -0.102617 10.68 0.307852L2.31997 5.03446C1.59394 5.44493 1 6.45245 1 7.27339V16.7266C1 17.5476 1.59394 18.5551 2.31997 18.9655L10.68 23.6921C11.4061 24.1026 12.5939 24.1026 13.32 23.6921L21.68 18.9655Z" fill="url(#paint1_linear_1481_13604)"/>
<path d="M14.0046 5.94082L12.001 3.88892L6.95571 8.98247L8.95933 10.9861L14.0046 5.94082Z" fill="white"/>
<path d="M17.0462 8.98247L15.0426 6.93056L6.95571 15.0658L8.95933 17.0694L17.0462 8.98247Z" fill="white"/>
<path d="M5.91769 9.97221L7.92131 12.0241L5.91769 14.0277L3.91406 12.0241L5.91769 9.97221Z" fill="white"/>
<path d="M20.0879 12.0241L18.0843 9.97221L9.99735 18.1074L12.001 20.111L20.0879 12.0241Z" fill="white"/>
<defs>
<linearGradient id="paint0_linear_1481_13604" x1="9.5" y1="2.5" x2="15" y2="22.5" gradientUnits="userSpaceOnUse">
<stop stop-color="#0EB4FB"/>
<stop offset="1" stop-color="#FB52A1"/>
</linearGradient>
<linearGradient id="paint1_linear_1481_13604" x1="12" y1="0" x2="12" y2="24" gradientUnits="userSpaceOnUse">
<stop stop-color="#F8D339"/>
<stop offset="1" stop-color="#F0BB0D"/>
</linearGradient>
</defs>
</svg>
