<svg width="100" height="101" viewBox="0 0 100 101" fill="none" xmlns="http://www.w3.org/2000/svg">
<path d="M90.3335 79.5231C93.3586 77.8128 95.8333 73.6148 95.8333 70.1942V30.8058C95.8333 27.3852 93.3586 23.1872 90.3335 21.4769L55.4999 1.78272C52.4747 0.0724281 47.5253 0.0724281 44.5001 1.78272L9.66653 21.4769C6.64139 23.1872 4.16666 27.3852 4.16666 30.8058V70.1942C4.16666 73.6148 6.64139 77.8128 9.66653 79.5231L44.5001 99.2173C47.5253 100.928 52.4747 100.928 55.4999 99.2173L90.3335 79.5231Z" fill="url(#paint0_linear_291_56509)"/>
<path fill-rule="evenodd" clip-rule="evenodd" d="M49.9775 81.0976C40.9826 81.0907 33.7371 78.9324 28.6745 75.0555C23.5513 71.1321 20.8333 65.5644 20.8333 59.2645C20.8333 53.1942 23.5453 48.8169 26.6138 45.8582C29.0186 43.5395 31.6723 42.0544 33.52 41.2003C33.1022 39.9179 32.5808 38.239 32.1144 36.5051C31.4904 34.1847 30.8781 31.4624 30.8781 29.4675C30.8781 27.1062 31.3929 24.7349 32.781 22.8922C34.2476 20.9455 36.4554 19.9026 39.1115 19.9026C41.1872 19.9026 42.9497 20.6725 44.3294 22.0009C45.6482 23.2705 46.526 24.9568 47.132 26.7145C48.197 29.8032 48.6117 33.6837 48.728 37.5562H51.2721C51.3884 33.6837 51.803 29.8032 52.8681 26.7145C53.4741 24.9568 54.3519 23.2705 55.6707 22.0009C57.0504 20.6725 58.8128 19.9026 60.8887 19.9026C63.5448 19.9026 65.7525 20.9455 67.2191 22.8922C68.6072 24.7349 69.122 27.1062 69.122 29.4675C69.122 31.4624 68.5097 34.1847 67.8856 36.5051C67.4192 38.239 66.8979 39.9179 66.48 41.2003C68.3279 42.0544 70.9815 43.5395 73.3862 45.8582C76.4548 48.8169 79.1667 53.1942 79.1667 59.2645C79.1667 65.5644 76.4489 71.1321 71.3256 75.0555C66.2631 78.9324 59.0175 81.0907 50.0226 81.0976H49.9775Z" fill="#633001"/>
<path d="M39.1114 22.1482C35.221 22.1482 33.4303 25.0801 33.4303 29.1348C33.4303 32.3577 35.5111 38.8123 36.3648 41.3251C36.5568 41.8902 36.255 42.5094 35.7048 42.7285C32.5869 43.9705 23.3856 48.5177 23.3856 58.9318C23.3856 69.902 32.7361 78.1734 49.9794 78.1865C49.9862 78.1865 49.993 78.1865 50 78.1865C50.0068 78.1865 50.0136 78.1865 50.0206 78.1865C67.2637 78.1734 76.6143 69.902 76.6143 58.9318C76.6143 48.5177 67.413 43.9705 64.2951 42.7285C63.7449 42.5094 63.4432 41.8902 63.6352 41.3251C64.4889 38.8123 66.5695 32.3577 66.5695 29.1348C66.5695 25.0801 64.7788 22.1482 60.8886 22.1482C55.2887 22.1482 53.8928 30.1615 53.7932 38.7619C53.7866 39.336 53.3271 39.8019 52.7587 39.8019H47.2412C46.6727 39.8019 46.2134 39.336 46.2067 38.7619C46.1071 30.1615 44.7112 22.1482 39.1114 22.1482Z" fill="#D1884F"/>
<path d="M50.0206 74.6724C37.3511 74.6724 23.4075 67.8213 23.3856 58.9526C23.3856 58.9665 23.3856 58.9804 23.3856 58.9941C23.3856 69.9732 32.7511 78.2489 50.0206 78.2489C67.29 78.2489 76.6554 69.9732 76.6554 58.9941C76.6554 58.9804 76.6554 58.9665 76.6554 58.9526C76.6335 67.8213 62.69 74.6724 50.0206 74.6724Z" fill="#FEDC90"/>
<path d="M42.9811 56.2287C42.9811 59.2229 41.5803 60.7824 39.8524 60.7824C38.1244 60.7824 36.7237 59.2229 36.7237 56.2287C36.7237 53.2344 38.1244 51.6749 39.8524 51.6749C41.5803 51.6749 42.9811 53.2344 42.9811 56.2287Z" fill="#633001"/>
<path d="M63.3173 56.2287C63.3173 59.2229 61.9166 60.7824 60.1887 60.7824C58.4608 60.7824 57.06 59.2229 57.06 56.2287C57.06 53.2344 58.4608 51.6749 60.1887 51.6749C61.9166 51.6749 63.3173 53.2344 63.3173 56.2287Z" fill="#633001"/>
<defs>
<linearGradient id="paint0_linear_291_56509" x1="50" y1="0.5" x2="50" y2="100.5" gradientUnits="userSpaceOnUse">
<stop stop-color="#53DEE9"/>
<stop offset="1" stop-color="#1FC7D4"/>
</linearGradient>
</defs>
</svg>
