<?xml version="1.0" encoding="UTF-8"?>
<svg width="24px" height="24px" viewBox="0 0 24 24" version="1.1" xmlns="http://www.w3.org/2000/svg" xmlns:xlink="http://www.w3.org/1999/xlink">
    <title>Assets/Crypto/CHSB</title>
    <defs>
        <linearGradient x1="50%" y1="0%" x2="50%" y2="100%" id="linearGradient-1">
            <stop stop-color="#13E5BF" offset="0%"></stop>
            <stop stop-color="#01C38D" offset="100%"></stop>
        </linearGradient>
    </defs>
    <g id="Assets/Crypto/CHSB" stroke="none" stroke-width="1" fill="none" fill-rule="evenodd">
        <g id="Icons/crypto/chsb">
            <path d="M21.6800305,18.9655351 C22.4060645,18.5550661 23,17.5475512 23,16.7266131 L23,7.27338689 C23,6.45244882 22.4060645,5.44493392 21.6800305,5.03446489 L13.3199695,0.307851775 C12.5939355,-0.102617258 11.4060645,-0.102617258 10.6800305,0.307851775 L2.31996952,5.03446489 C1.59393547,5.44493392 1,6.45244882 1,7.27338689 L1,16.7266131 C1,17.5475512 1.59393547,18.5550661 2.31996952,18.9655351 L10.6800305,23.6921482 C11.4060645,24.1026173 12.5939355,24.1026173 13.3199695,23.6921482 L21.6800305,18.9655351 Z" id="Stroke-3" fill="url(#linearGradient-1)" fill-rule="nonzero"></path>
            <path d="M13.9074219,4 L12.5951607,4.74481682 L12.5951607,11.0720125 L13.3116444,11.4790386 L13.3116444,6.6605699 L15.772112,8.05741371 L15.7744028,8.05616461 L16.2521173,8.32686109 L16.6510644,8.10184576 L16.6510644,7.7215859 L13.3116444,5.8286734 L13.3116444,5.17004405 L13.9074219,4.83207495 L17.3659622,6.79547203 L17.3659622,8.54295433 L15.7055034,9.47977472 L15.6498199,9.45229465 C15.5484972,9.40250934 15.4438265,9.37699214 15.3388033,9.37699214 L15.3388033,9.37699214 C14.9433804,9.37699214 14.6221434,9.70264875 14.6221434,10.1028941 L14.6221434,10.1028941 C14.6221434,10.502961 14.9433804,10.8286176 15.3388033,10.8286176 L15.3388033,10.8286176 C15.7053272,10.8286176 16.0098239,10.5482853 16.0475336,10.1769475 L16.0475336,10.1769475 L16.053701,10.1143144 L17.7293142,9.16839346 L19.2833401,10.0509675 L19.2833401,13.9540289 L17.7275521,14.836246 L11.4048393,11.2461719 L11.4048393,4.74499526 L10.0924019,4 L5.91773037,6.3702448 L5.91773037,8.53296158 L4,9.62020855 L4,14.3744382 L5.91773037,15.4632911 L5.91773037,17.6297552 L10.0924019,20 L11.4048393,19.2550047 L11.4048393,12.914069 L10.6881794,12.5072213 L10.6881794,17.3394301 L7.74770647,15.6729605 L7.34893556,15.8979758 L7.34893556,16.2782357 L10.6881794,18.1713266 L10.6881794,18.8297775 L10.0924019,19.1679251 L6.63421403,17.204528 L6.63421403,15.4568672 L8.29449664,14.5204037 L8.35018007,14.5477053 C8.45167898,14.5976691 8.55617353,14.6228294 8.66119671,14.6228294 L8.66119671,14.6228294 C9.05644335,14.6228294 9.37785658,14.2973513 9.37785658,13.8971059 L9.37785658,13.8971059 C9.37785658,13.4968605 9.05644335,13.1713824 8.66119671,13.1713824 L8.66119671,13.1713824 C8.29484906,13.1713824 7.99035232,13.4515363 7.95281886,13.8232309 L7.95281886,13.8232309 L7.94629897,13.885864 L6.2706858,14.8314281 L4.71665988,13.949211 L4.71665988,10.0459711 L6.27244793,9.16375397 L12.5951607,12.7538281 L12.5951607,19.2550047 L13.9074219,20 L18.0824458,17.6297552 L18.0824458,15.46686 L20,14.379613 L20,9.62574026 L18.0824458,8.53724419 L18.0824458,6.3702448 L13.9074219,4 Z M6.63421403,6.79547203 L10.0924019,4.83207495 L10.6881794,5.17040094 L10.6881794,5.82849495 L6.63421403,8.12664919 L6.63421403,6.79547203 Z M7.0060243,8.74816261 L10.6881794,6.66021302 L10.6881794,10.8389673 L7.0060243,8.74816261 Z M13.3116444,13.1606758 L16.9941519,15.2520158 L13.3116444,17.339787 L13.3116444,13.1606758 Z M13.3116444,18.8297775 L13.3116444,18.1716835 L17.3659622,15.8733508 L17.3659622,17.204528 L13.9074219,19.1679251 L13.3116444,18.8297775 Z" id="Fill-8" fill="#FFFFFF"></path>
        </g>
    </g>
</svg>