<svg width="24" height="24" viewBox="0 0 24 24" fill="none" xmlns="http://www.w3.org/2000/svg">
<path d="M21.68 18.9655C22.4061 18.5551 23 17.5476 23 16.7266V7.27339C23 6.45245 22.4061 5.44493 21.68 5.03446L13.32 0.307852C12.5939 -0.102617 11.4061 -0.102617 10.68 0.307852L2.31997 5.03446C1.59394 5.44493 1 6.45245 1 7.27339V16.7266C1 17.5476 1.59394 18.5551 2.31997 18.9655L10.68 23.6921C11.4061 24.1026 12.5939 24.1026 13.32 23.6921L21.68 18.9655Z" fill="url(#paint0_linear_2603:45235)"/>
<path d="M22.9796 7H1.02051C1.13075 6.24042 1.67291 5.4003 2.32001 5.03446L10.6801 0.307852C11.4061 -0.102617 12.594 -0.102617 13.32 0.307852L21.6801 5.03446C22.3272 5.4003 22.8693 6.24042 22.9796 7Z" fill="#FB34F4"/>
<path d="M1 11H23V7H1V11Z" fill="#DC14FC"/>
<path d="M1.02047 15H22.9795C22.993 14.9073 23 14.8159 23 14.7266V11H1V14.7266C1 14.8159 1.00702 14.9073 1.02047 15Z" fill="#B009FF"/>
<path d="M21.6191 19H2.38098L10.6801 23.6921C11.0431 23.8974 11.5216 24 12.0001 24C12.4785 24 12.957 23.8974 13.32 23.6921L21.6191 19Z" fill="#7300FB"/>
<path fill-rule="evenodd" clip-rule="evenodd" d="M14.5459 9.82196H14.9093H15.2733H15.6367V10.1834V10.5444H15.2733H14.9093H14.5459H14.1824H13.8185H13.455H13.0916V10.1834V9.82196H13.455H13.8185V9.46103V9.1001H14.1824H14.5459V9.46103V9.82196ZM12.3642 10.5445V10.9054V11.2668V11.6277H12.7276H13.0916V11.2668V10.9054V10.5445H12.7276H12.3642ZM13.455 12.3501H13.0916V11.9887V11.6278H13.455H13.8185H14.1824H14.5459H14.9093V11.9887V12.3499H15.2714H15.6349V12.7109V13.0718V13.4333H15.2714H14.9093V13.7942V14.1551H14.5459V14.5166V14.8775H14.1825H13.8185V14.5166V14.1551H13.455H13.0916H12.7276H12.3642V13.7942V13.4332H12.7276H13.0916H13.455H13.8185H14.1825H14.5459H14.9075V13.0718V12.7109V12.3501H14.5459H14.1824H13.8185H13.455ZM19.6366 9.82185H19.2726H18.9091H18.5457H18.1817H17.8183H17.4549H17.0909H16.7274H16.364V10.1833V10.5442H16.7274H17.0909H17.4549H17.8183V10.9052V11.2666V11.6276V11.9885V12.35V12.7109V13.0718V13.4333V13.7942V14.1552H18.1817H18.5457V13.7942V13.4333V13.0718V12.7109V12.35V11.9885V11.6276V11.2666V10.9052V10.5442H18.9091H19.2726H19.6366H20V10.1833V9.82185H19.6366ZM10.9101 10.1833V9.82185H11.2735H11.6369V10.1833V10.5442V10.9052V11.2666V11.6276V11.9885V12.35V12.7109V13.0718V13.4333V13.7942V14.1552H11.2735H10.9101V13.7942V13.4333V13.0718V12.7109V12.35H10.5461H10.1826H9.8192H9.45523H9.09179V12.7109V13.0718V13.4333V13.7942V14.1552H8.72835H8.36438V13.7942V13.4333V13.0718V12.7109V12.35V11.9885V11.6276V11.2666V10.9052V10.5442V10.1833V9.82185H8.72835H9.09179V10.1833V10.5442V10.9052V11.2666V11.6276H9.45523H9.8192H10.1826H10.5461H10.9101V11.2666V10.9052V10.5442V10.1833ZM6.9091 9.82185H6.54566H6.18169H5.81825H5.45481H5.09084H4.7274V10.1833V10.5442H5.09084H5.45481H5.81825H6.18169H6.54566H6.9091H7.27254H7.63651V10.1833V9.82185H7.27254H6.9091ZM7.63823 13.072V13.4335H7.27426H6.91082V13.072V12.7111V12.3501H6.54738H6.18341H5.81997H5.45653V11.9887V11.6278H5.81997H6.18341H6.54738H6.91082H7.27426H7.63823V11.9887V12.3501V12.7111V13.072ZM4.7274 14.1551H5.09084H5.45481H5.81825H6.18169H6.54566H6.9091V13.7942V13.4332H6.54566H6.18169H5.81825H5.45481H5.09084H4.72741V13.0721V12.7111V12.3501V11.9887V11.6277V11.2668V10.9054V10.5445H4.36397H4V10.9054V11.2668V11.6277V11.9887V12.3501V12.7111V13.0721V13.4335H4.36397H4.7274V13.7942V14.1551Z" fill="white"/>
<path d="M23 16.7266C23 17.5476 22.4061 18.5551 21.68 18.9655L21.6191 19H2.38093L2.31997 18.9655C1.59394 18.5551 1 17.5476 1 16.7266V15H23V16.7266Z" fill="#8D00FC"/>
<defs>
<linearGradient id="paint0_linear_2603:45235" x1="12" y1="24" x2="14.0478" y2="0.176012" gradientUnits="userSpaceOnUse">
<stop stop-color="#7E18F8"/>
<stop offset="1" stop-color="#FA34F3"/>
</linearGradient>
</defs>
</svg>
