<svg width="24" height="24" viewBox="0 0 24 24" fill="none" xmlns="http://www.w3.org/2000/svg">
<path d="M21.68 18.9655C22.4061 18.5551 23 17.5476 23 16.7266V7.27339C23 6.45245 22.4061 5.44493 21.68 5.03446L13.32 0.307852C12.5939 -0.102617 11.4061 -0.102617 10.68 0.307852L2.31997 5.03446C1.59394 5.44493 1 6.45245 1 7.27339V16.7266C1 17.5476 1.59394 18.5551 2.31997 18.9655L10.68 23.6921C11.4061 24.1026 12.5939 24.1026 13.32 23.6921L21.68 18.9655Z" fill="url(#paint0_linear_8333_367246)"/>
<g clip-path="url(#clip0_8333_367246)">
<path d="M14.6873 7.81252C11.4998 5.56252 8.12478 5.00002 7.12478 6.43752L4.24978 10.625C3.37478 12.1875 5.18728 15 8.31228 17.1875C11.4373 19.4375 14.8123 20 15.8123 18.625H15.8748L18.7498 14.375C19.6873 12.9375 17.9373 9.93752 14.6873 7.81252ZM6.87478 8.43752C6.81228 8.50002 6.74978 8.43752 6.74978 8.37502C6.74978 8.25002 6.68728 8.12502 6.62478 7.93751C6.62478 7.87501 6.68728 7.87502 6.74978 7.81252C6.81228 7.75002 6.87478 7.81252 6.87478 7.87502C6.93728 8.06252 6.93728 8.18752 6.93728 8.31252C6.99978 8.37502 6.93728 8.43752 6.87478 8.43752ZM11.1873 13.4375C11.1248 13.4375 11.0623 13.5 10.9998 13.4375C9.12478 12.1875 7.68729 10.5 6.99978 8.93752C6.99978 8.87502 6.99978 8.87502 7.06228 8.81252C7.12478 8.75002 7.18728 8.81251 7.18728 8.87501C7.87478 10.375 9.24978 12 11.1873 13.25C11.1873 13.3125 11.2498 13.375 11.1873 13.4375ZM15.3123 15.375C15.1248 15.3125 14.8748 15.25 14.6873 15.1875C14.6248 15.1875 14.6248 15.125 14.6248 15.0625C14.6248 15 14.6873 15 14.7498 15C14.9373 15.0625 15.1873 15.125 15.3748 15.1875C15.4373 15.1875 15.4373 15.25 15.4373 15.3125C15.4373 15.375 15.3748 15.375 15.3123 15.375ZM17.3748 15.5625C16.9373 15.625 16.3748 15.5625 15.8748 15.5C15.8123 15.5 15.7498 15.4375 15.7498 15.375C15.7498 15.3125 15.8123 15.25 15.8748 15.25C16.3748 15.3125 16.8748 15.375 17.3748 15.3125C17.4373 15.3125 17.4998 15.375 17.4998 15.4375C17.4998 15.5 17.4373 15.5625 17.3748 15.5625ZM18.3123 14.125C17.4373 15.375 14.3748 14.75 11.4373 12.6875C8.43728 10.625 6.68728 8.00002 7.56228 6.75002C8.43728 5.50001 11.4998 6.12501 14.4373 8.18752C17.3748 10.25 19.1248 12.875 18.3123 14.125Z" fill="white"/>
<path d="M13.6873 9.31267C12.1873 8.31267 10.6873 8.00017 10.2498 8.62517C9.81234 9.25017 10.6873 10.5627 12.1248 11.5627C13.6248 12.5627 15.1248 12.8752 15.5623 12.2502C15.9998 11.6252 15.1248 10.3127 13.6873 9.31267Z" fill="white"/>
</g>
<defs>
<linearGradient id="paint0_linear_8333_367246" x1="9.5" y1="2.5" x2="15" y2="22.5" gradientUnits="userSpaceOnUse">
<stop stop-color="#0EB4FB"/>
<stop offset="1" stop-color="#FB52A1"/>
</linearGradient>
<clipPath id="clip0_8333_367246">
<rect width="15" height="15" fill="white" transform="translate(4 5)"/>
</clipPath>
</defs>
</svg>
