<?xml version="1.0" encoding="UTF-8"?>
<svg width="24px" height="24px" viewBox="0 0 24 24" version="1.1" xmlns="http://www.w3.org/2000/svg" xmlns:xlink="http://www.w3.org/1999/xlink">
    <title>Assets/Crypto/USDC</title>
    <defs>
        <linearGradient x1="50%" y1="9.21464327%" x2="52.6043737%" y2="97.326754%" id="linearGradient-1">
            <stop stop-color="#2D95FF" offset="0%"></stop>
            <stop stop-color="#2775C9" offset="100%"></stop>
        </linearGradient>
    </defs>
    <g id="Assets/Crypto/USDC" stroke="none" stroke-width="1" fill="none" fill-rule="evenodd">
        <path d="M21.6800305,18.9655351 C22.4060645,18.5550661 23,17.5475512 23,16.7266131 L23,7.27338689 C23,6.45244882 22.4060645,5.44493392 21.6800305,5.03446489 L13.3199695,0.307851775 C12.5939355,-0.102617258 11.4060645,-0.102617258 10.6800305,0.307851775 L2.31996952,5.03446489 C1.59393547,5.44493392 1,6.45244882 1,7.27338689 L1,16.7266131 C1,17.5475512 1.59393547,18.5550661 2.31996952,18.9655351 L10.6800305,23.6921482 C11.4060645,24.1026173 12.5939355,24.1026173 13.3199695,23.6921482 L21.6800305,18.9655351 Z" id="Stroke-3" fill="url(#linearGradient-1)"></path>
        <path d="M14.5516416,4.04211219 C17.8012528,5.18775503 19.9939621,8.39032807 19.9999968,11.999731 C20.0030718,15.6136421 17.8130781,18.8252906 14.5607222,19.9764786 C14.4313077,20.0223931 14.2888478,20.0003064 14.1774831,19.9170621 C14.0661183,19.8338177 13.9992979,19.6994689 13.9977258,19.555643 L13.9977258,19.555643 L13.9977258,19.3930474 C14.0071249,19.0219836 14.2195105,18.6901581 14.542561,18.5418118 C17.0637366,17.4643556 18.7131249,14.8846371 18.7131249,12.0188598 C18.7131249,9.15308262 17.0637366,6.57336409 14.542561,5.49590793 C14.2130226,5.34899598 13.9961267,5.01193397 13.9886452,4.63510782 L13.9886452,4.63510782 L13.9886452,4.49164114 C13.9886452,4.24337316 14.1797245,4.04211219 14.4154328,4.04211219 L14.4154328,4.04211219 Z M9.4755937,4.0229833 C9.5929335,3.97928006 9.72313765,3.99863183 9.82441476,4.0748273 C9.92569186,4.15102276 9.98529989,4.27447551 9.98412413,4.40556113 L9.98412413,4.40556113 L9.98412413,4.62554338 C9.98350626,4.98696263 9.7753412,5.31206804 9.45743252,5.4480857 C6.93031816,6.52247012 5.27564936,9.10539649 5.27564936,11.9758198 C5.27564936,14.8462432 6.93031816,17.4291696 9.45743252,18.503554 C9.77676766,18.6430004 9.98471984,18.9715497 9.98412413,19.3356607 L9.98412413,19.3356607 L9.98412413,19.5365141 C9.98412413,19.7742175 9.80115828,19.9669142 9.57548015,19.9669142 L9.57548015,19.9669142 L9.44835194,19.9669142 C6.19557679,18.8201504 4.00213339,15.6126547 4,11.999731 C4.00213271,8.37567034 6.20888477,5.16091312 9.4755937,4.0229833 Z M12.0045371,6.44757027 C12.3580995,6.44757027 12.6447184,6.74946171 12.6447184,7.12186368 L12.6447184,7.12186368 L12.6447184,7.78181043 C13.6818302,7.86065626 14.5535483,8.63222568 14.805898,9.69469956 C14.8514321,9.90826345 14.7262584,10.1209144 14.5243998,10.1729218 L14.5243998,10.1729218 L14.0976123,10.1729218 C13.8173479,10.1713869 13.5629202,10.0001743 13.44381,9.73295734 C13.1497117,9.19740291 12.5842082,8.89396552 11.9999968,8.95823724 C11.0919381,8.95823724 10.5471029,9.55123287 10.5471029,10.0868418 C10.5471029,10.6224508 10.9738905,10.9380775 11.8819491,11.1771886 L11.8819491,11.1771886 L12.7900078,11.3876064 C14.3609493,11.7414909 15.0238321,12.4396955 15.0238321,13.65438 C15.0042301,15.0122849 13.9612357,16.1066136 12.6719602,16.122007 L12.6719602,16.122007 L12.6719602,16.9349849 C12.6719601,17.3073868 12.3853412,17.6092783 12.0317788,17.6092783 C11.6782164,17.6092783 11.3915975,17.3073868 11.3915975,16.9349849 L11.3915975,16.9349849 L11.3915975,16.1315715 C10.2639212,16.1134841 9.28995911,15.2959409 9.02156437,14.1421668 C9.00564104,14.054621 9.02352467,13.9640014 9.07125186,13.8903912 C9.11897905,13.8167811 9.19260796,13.76626 9.27582079,13.7500245 L9.27582079,13.7500245 L9.8115754,13.7500245 C10.0489347,13.7518885 10.2642682,13.8968966 10.3654912,14.1230379 C10.7070906,14.7189494 11.3418642,15.0569626 11.9999968,14.9934024 C12.9080554,14.9934024 13.6072606,14.4195357 13.6072606,13.8361045 C13.6072606,13.2526733 13.2077148,12.9083533 12.236092,12.6692421 L12.236092,12.6692421 L11.2372275,12.4205666 C9.8115754,12.1049399 9.13961199,11.3493486 9.13961199,10.1920507 C9.18977485,8.9171743 10.1544223,7.89283137 11.3643557,7.82963266 L11.3643557,7.82963266 L11.3643557,7.12186368 C11.3643557,6.74946171 11.6509747,6.44757027 12.0045371,6.44757027 Z" id="Combined-Shape" fill="#FFFFFF" fill-rule="nonzero"></path>
    </g>
</svg>