<svg width="24" height="25" viewBox="0 0 24 25" fill="none" xmlns="http://www.w3.org/2000/svg">
<path d="M21.68 19.4655C22.4061 19.0551 23 18.0476 23 17.2266V7.77339C23 6.95245 22.4061 5.94493 21.68 5.53446L13.32 0.807852C12.5939 0.397383 11.4061 0.397383 10.68 0.807852L2.31997 5.53446C1.59394 5.94493 1 6.95245 1 7.77339V17.2266C1 18.0476 1.59394 19.0551 2.31997 19.4655L10.68 24.1921C11.4061 24.6026 12.5939 24.6026 13.32 24.1921L21.68 19.4655Z" fill="url(#paint0_linear_606_7273)"/>
<path fill-rule="evenodd" clip-rule="evenodd" d="M13.4243 13.9506C13.3447 13.9562 12.9337 13.979 12.0169 13.979C11.2877 13.979 10.77 13.9586 10.5883 13.9506C7.7703 13.8353 5.66689 13.3788 5.66689 12.8322C5.66689 12.2857 7.7703 11.8298 10.5883 11.7126V13.496C10.7726 13.5083 11.3003 13.5373 12.0295 13.5373C12.9045 13.5373 13.3427 13.5034 13.4216 13.4966V11.7138C16.2337 11.8304 18.3325 12.2869 18.3325 12.8322C18.3325 13.3776 16.2343 13.834 13.4216 13.95L13.4243 13.9506ZM13.4243 11.5294V9.93356H17.3487V7.5H6.6639V9.93356H10.5877V11.5288C7.39841 11.6651 5 12.253 5 12.9575C5 13.6619 7.39841 14.2492 10.5877 14.3861V19.5H13.4236V14.3843C16.6056 14.248 19 13.6607 19 12.9568C19 12.253 16.6076 11.6657 13.4236 11.5288L13.4243 11.5294Z" fill="white"/>
<defs>
<linearGradient id="paint0_linear_606_7273" x1="12" y1="0.5" x2="12" y2="24.5" gradientUnits="userSpaceOnUse">
<stop stop-color="#55BB9F"/>
<stop offset="1" stop-color="#329B7F"/>
</linearGradient>
</defs>
</svg>
