<svg width="24" height="24" viewBox="0 0 24 24" fill="none" xmlns="http://www.w3.org/2000/svg">
<path fill-rule="evenodd" clip-rule="evenodd" d="M21.68 18.9655C22.4061 18.5551 23 17.5476 23 16.7266V7.27339C23 6.45245 22.4061 5.44493 21.68 5.03446L13.32 0.307852C12.5939 -0.102617 11.4061 -0.102617 10.68 0.307852L2.31997 5.03446C1.59394 5.44493 1 6.45245 1 7.27339V16.7266C1 17.5476 1.59394 18.5551 2.31997 18.9655L10.68 23.6921C11.4061 24.1026 12.5939 24.1026 13.32 23.6921L21.68 18.9655Z" fill="url(#paint0_linear)"/>
<path fill-rule="evenodd" clip-rule="evenodd" d="M17.9766 7H16.2422L13.4979 9.73184C12.6665 10.5563 11.3313 10.5563 10.5 9.73184L7.75781 7H6.02203L9.63281 10.5962C10.9409 11.8979 13.0601 11.8979 14.3672 10.5962L17.9766 7ZM6 17H7.73555L10.5021 14.246C11.3335 13.4215 12.6687 13.4215 13.5 14.246L16.2656 17H18L14.3672 13.3816C13.0591 12.08 10.9399 12.08 9.63281 13.3816L6 17Z" fill="white"/>
<defs>
<linearGradient id="paint0_linear" x1="1" y1="0" x2="1" y2="24" gradientUnits="userSpaceOnUse">
<stop stop-color="#49535C"/>
<stop offset="1" stop-color="#23292F"/>
</linearGradient>
</defs>
</svg>
